<svg width="87" height="31" viewBox="0 0 87 31" fill="none" xmlns="http://www.w3.org/2000/svg">
<path d="M33.6976 26.4989C31.5256 26.4989 29.7964 26.0909 28.5236 25.2749C27.2371 24.4589 26.6007 22.9677 26.6007 20.8293V18.2125C26.6007 16.1304 27.3201 14.7376 28.745 14.0201C29.4229 13.6824 30.2667 13.5136 31.2489 13.5136C32.162 13.5136 33.075 13.6543 34.0019 13.9357C34.9288 14.217 35.6897 14.5828 36.2984 15.019C36.2984 12.8524 34.8458 11.7691 31.9268 11.7691L32.079 10.095C34.0573 10.095 35.5237 10.4185 36.4644 11.0516C37.4051 11.6988 37.9861 12.4585 38.1936 13.3307C38.415 14.217 38.5257 15.3425 38.5257 16.7353V26.1331C36.2984 26.3863 34.6936 26.4989 33.6976 26.4989ZM33.9189 16.1163C33.0474 15.8349 32.2588 15.6942 31.5395 15.6942C29.741 15.6942 28.8418 16.5946 28.8418 18.4095V20.8715C28.8418 23.2631 30.4466 24.4589 33.6699 24.4589C34.3063 24.4589 35.1916 24.3886 36.2984 24.2338V17.087C35.579 16.7212 34.7905 16.3977 33.9189 16.1163Z" fill="#3398B9"/>
<path d="M41.7628 4.10178H43.9901V26.1612H41.7628V4.10178Z" fill="#3398B9"/>
<path d="M58.1146 23.9243C57.6858 24.6559 57.0909 25.2186 56.3439 25.5985C55.6798 25.9361 55.0158 26.1753 54.3517 26.33C53.6739 26.4707 52.9683 26.5551 52.1936 26.5551C51.4328 26.5551 50.3814 26.4848 49.0395 26.33L47.3379 26.1753V4.10178H49.5652V10.9672C50.0217 10.6999 50.5612 10.4889 51.2114 10.3341C51.8478 10.1934 52.498 10.109 53.162 10.109C54.2964 10.109 55.2925 10.306 56.1363 10.714C57.8933 11.53 58.7648 13.0494 58.7648 15.2581V21.2091C58.7648 22.2783 58.5573 23.1787 58.1146 23.9243ZM55.5553 13.0494C54.8774 12.5288 54.0336 12.2615 52.996 12.2615C52.3735 12.2615 51.751 12.3459 51.1423 12.5148C50.5197 12.6836 49.994 12.9087 49.5652 13.176V24.2057C50.3122 24.3464 51.1284 24.4308 52.0138 24.4308C53.3557 24.4308 54.4486 24.1776 55.2925 23.6852C56.1363 23.1928 56.5652 22.3768 56.5652 21.2372V15.5958C56.5652 14.4281 56.2332 13.5699 55.5553 13.0494Z" fill="#3398B9"/>
<path d="M70.7037 24.9935C70.2748 25.4719 69.7353 25.8517 69.0989 26.119C68.4625 26.3863 67.7985 26.5129 67.1206 26.5129C63.2333 26.5129 61.2965 24.5856 61.2965 20.7448V10.3763H63.51V20.7448C63.51 21.9688 63.8143 22.8692 64.4368 23.4741C65.0594 24.0791 65.9447 24.3745 67.1068 24.3745C69.4448 24.3745 70.6068 23.1506 70.6068 20.7167V10.3763H72.8341V26.1612H70.7037V24.9935Z" fill="#3398B9"/>
<path d="M78.755 23.868C79.4329 24.3041 80.2491 24.5152 81.176 24.5152C82.0198 24.5152 82.7669 24.3041 83.4171 23.8962C84.0673 23.4882 84.3993 22.8692 84.3993 22.0532C84.3993 21.4904 84.2333 21.0121 83.9151 20.6323C83.5969 20.2524 83.1957 19.957 82.7115 19.7319C82.2273 19.5068 81.5633 19.2535 80.7194 18.9581C79.7095 18.6064 78.8933 18.2828 78.2846 18.0014C77.6759 17.7201 77.1364 17.298 76.6799 16.7634C76.2095 16.2147 75.9328 15.5113 75.8222 14.6531L75.7945 14.2733C75.7945 13.5839 75.9882 12.9086 76.3617 12.2474C76.7491 11.5862 77.3301 11.0516 78.1325 10.6295C78.921 10.2075 79.9309 9.99646 81.1206 9.99646C81.7846 9.99646 82.3657 10.0668 82.8775 10.2075C83.3894 10.3482 83.7768 10.4889 84.0673 10.6295C84.3578 10.7702 84.5376 10.8687 84.593 10.9109L83.8736 12.8946C83.8183 12.8524 83.6661 12.768 83.4586 12.6413C83.2372 12.5147 82.9329 12.3881 82.5179 12.2756C82.1028 12.163 81.6463 12.1067 81.1206 12.1067C80.1522 12.1067 79.3914 12.3318 78.8242 12.768C78.2708 13.2041 78.0218 13.809 78.1048 14.5687C78.1601 15.1315 78.4645 15.5817 79.0178 15.9052C79.5712 16.2288 80.4012 16.5946 81.508 16.9885C82.6009 17.3684 83.5001 17.7341 84.1918 18.0718C84.8835 18.4235 85.4783 18.9159 85.9625 19.549C86.4467 20.1961 86.6957 21.0262 86.6957 22.0532C86.6957 23.3616 86.2254 24.4448 85.2985 25.3171C84.3716 26.1893 82.9882 26.6255 81.176 26.6255C80.0001 26.6255 78.9763 26.4144 78.1186 26.0064C77.2609 25.5985 76.6107 25.0498 76.168 24.3886C75.7253 23.7133 75.4763 22.9676 75.4348 22.1517L77.6068 22.0532C77.6898 22.841 78.0771 23.446 78.755 23.868Z" fill="#3398B9"/>
<path d="M11.3 12.2052L5.80005 21.3919L11.3 30.4661L16.8 21.2091L11.3 12.2052Z" fill="#66B3CB"/>
<path d="M4.67591 19.9632L11.3439 8.11754L18.1503 19.9632H22.8677L11.3162 0L0 19.9632H4.67591Z" fill="#3398B9"/>
</svg>
