<?xml version="1.0" encoding="utf-8"?>
<svg version="1.1" id="Ebene_2" xmlns="http://www.w3.org/2000/svg" xmlns:xlink="http://www.w3.org/1999/xlink" x="0px" y="0px"
	 viewBox="0 0 160.5 78.4" style="enable-background:new 0 0 160.5 78.4;" xml:space="preserve">
<style type="text/css">
	.st0{fill:#002637;}
</style>
<path class="st0" d="M35.2,37.2l24.7-14.5c-0.2-0.3-0.6-0.6-0.9-0.8L35.3,8.4c-1.2-0.8-3.2-0.8-4.4,0L8.1,21.5L35.2,37.2z"/>
<polygon class="st0" points="38.7,39.2 60.4,51.8 60.4,26.4 "/>
<path class="st0" d="M6.2,24.5c-0.1,0.2-0.1,0.5-0.1,0.7v27c0,1.5,0.9,3.2,2.2,3.9l23.5,13.5c1.2,0.8,3.2,0.8,4.4,0l23.7-13.4
	c0.2-0.1,0.3-0.2,0.5-0.4L6.2,24.5z"/>
<path class="st0" d="M68.7,28.5c0-3.1,0.8-5.3,2.3-6.7c1.6-1.4,3.5-2.1,5.8-2.1c0.5,0,1.2,0.1,2.2,0.2l-0.6,3.5
	c-0.6-0.1-1.1-0.1-1.4-0.1c-1.4,0-2.4,0.4-3.2,1.3c-0.8,0.8-1.2,2.2-1.2,3.9v2.6h5.8l-1.3,3.7h-4.5v23.6h-4L68.7,28.5L68.7,28.5z"/>
<path class="st0" d="M100.4,55.8c-1.7,2-4.2,3-7.5,3.1s-6-1-7.7-2.9c-1.8-2-2.6-4.5-2.7-7.5l-0.1-7.2c0-3.4,0.8-6.1,2.5-7.9
	c1.7-1.9,4.3-2.8,7.6-2.8c3.2,0,5.6,0.9,7.4,2.8c1.8,1.9,2.7,4.5,2.8,7.8l0.1,7.2C102.8,51.3,102,53.8,100.4,55.8z M92.5,34.3
	c-1.9,0-3.4,0.6-4.6,1.7c-1.1,1.1-1.7,2.9-1.7,5.3l0.1,7.7c0,2,0.6,3.5,1.8,4.6c1.2,1.1,2.7,1.7,4.6,1.7s3.4-0.6,4.5-1.8
	s1.6-2.7,1.6-4.7l-0.1-7.7C98.7,36.5,96.6,34.2,92.5,34.3z"/>
<path class="st0" d="M107.8,31.1h3.8v1.4c1.7-1.3,3.7-1.9,6-1.9c1.2,0,2.6,0.2,4.3,0.5l-1,3.7c-1.1-0.4-2.2-0.6-3.4-0.6
	c-1.6,0-3,0.3-4.1,1s-1.7,1.6-1.7,2.9v20.2h-3.9L107.8,31.1L107.8,31.1z"/>
<path class="st0" d="M127.3,23.5c-0.4-0.4-0.7-1-0.7-1.6s0.2-1.1,0.7-1.6c0.4-0.4,1-0.7,1.6-0.7s1.1,0.2,1.5,0.6s0.6,1,0.6,1.6
	s-0.2,1.1-0.6,1.6c-0.4,0.4-0.9,0.6-1.5,0.6C128.3,24.2,127.8,23.9,127.3,23.5z M126.8,31.1h3.9v27.2h-3.9V31.1z"/>
<path class="st0" d="M141.6,54.4c1.2,0.7,2.6,1.1,4.3,1.1c1.5,0,2.8-0.3,3.9-1.1c1.1-0.7,1.7-1.8,1.7-3.2c0-1-0.3-1.8-0.8-2.4
	c-0.6-0.6-1.3-1.2-2.1-1.6c-0.9-0.4-2-0.8-3.5-1.3c-1.8-0.6-3.2-1.2-4.3-1.7s-2-1.2-2.8-2.2c-0.8-0.9-1.3-2.2-1.5-3.6v-0.6
	c0-1.2,0.3-2.4,1-3.5s1.7-2.1,3.1-2.8c1.4-0.7,3.1-1.1,5.2-1.1c1.2,0,2.2,0.1,3.1,0.3c0.9,0.2,1.6,0.5,2.1,0.7s0.8,0.4,0.9,0.5
	l-1.3,3.4c-0.1-0.1-0.3-0.2-0.7-0.4s-0.9-0.4-1.7-0.6c-0.7-0.2-1.5-0.3-2.4-0.3c-1.7,0-3,0.4-4,1.1c-1,0.8-1.4,1.8-1.3,3.1
	c0.1,1,0.6,1.8,1.6,2.3c1,0.6,2.4,1.2,4.4,1.9c1.9,0.6,3.5,1.3,4.7,1.9c1.2,0.6,2.2,1.5,3.1,2.5c0.8,1.1,1.3,2.5,1.3,4.3
	c0,2.2-0.8,4.1-2.4,5.6c-1.6,1.5-4.1,2.2-7.2,2.2c-2.1,0-3.9-0.3-5.4-1.1c-1.5-0.7-2.6-1.6-3.4-2.8c-0.8-1.2-1.2-2.4-1.3-3.9
	l3.8-0.2C139.7,52.6,140.4,53.7,141.6,54.4z"/>
</svg>
