<?xml version="1.0" encoding="iso-8859-1"?>
<!-- Generator: Adobe Illustrator 21.0.0, SVG Export Plug-In . SVG Version: 6.00 Build 0)  -->
<svg version="1.1" id="Capa_1" xmlns="http://www.w3.org/2000/svg" xmlns:xlink="http://www.w3.org/1999/xlink" x="0px" y="0px"
	 viewBox="0 0 244.26 58.51" style="enable-background:new 0 0 244.26 58.51;" xml:space="preserve">
<g>
	<path style="fill:#211E1E;" d="M14.62,5.77h22.26l1.02-0.01h2.26c1.08,0,2.87-0.05,5.38-0.16l0.94-0.04
		c-0.14,1.95-0.16,2.72-0.17,3.75l-0.01,2.99l-0.01,2.84v15.84c0,9.97-2.26,13.36-13.02,18.67c-0.48,0.24-5.96,2.97-6.53,3.28
		l-0.54,0.29l-0.55,0.29l-0.55-0.29l-0.55-0.29c-2.26-1.18-4.55-2.22-6.34-3.1C8.37,44.99,5.21,41.56,5.21,30.98V15.14l-0.03-2.84
		L5.17,9.31C5.16,7.51,5.14,6.92,5,5.56L5.94,5.6c2.48,0.1,4.32,0.16,5.4,0.16h2.25L14.62,5.77L14.62,5.77z"/>
	<polygon style="fill:#FFFFFF;" points="25.66,52.54 29.9,50.46 30,50.42 29.97,50.33 29.97,30.83 29.93,30.71 30.07,30.74 
		45.4,30.74 45.54,30.78 45.5,30.61 45.5,22.34 45.54,22.21 45.4,22.25 30.07,22.25 29.93,22.27 29.97,22.14 29.97,6.64 30,6.5 
		29.89,6.54 21.49,6.54 21.35,6.5 21.39,6.64 21.39,22.14 21.42,22.27 21.3,22.25 6.08,22.25 5.95,22.21 5.99,22.34 5.99,30.69 
		5.95,30.78 6.08,30.74 21.3,30.74 21.42,30.71 21.39,30.87 21.39,50.29 21.35,50.44 21.46,50.47 25.66,52.54 	"/>
	<polygon style="fill:#EE2E4F;" points="6.15,6.54 5.95,6.5 5.99,6.65 5.99,22.17 5.95,22.29 6.14,22.25 21.29,22.25 21.42,22.29 
		21.39,22.16 21.39,6.61 21.42,6.5 21.29,6.54 6.15,6.54 	"/>
	<polygon style="fill:#EE2E4F;" points="30.14,6.54 29.95,6.5 29.97,6.65 29.97,22.17 29.95,22.29 30.12,22.25 45.39,22.25 
		45.54,22.29 45.5,22.16 45.5,6.61 45.54,6.5 45.39,6.54 30.14,6.54 	"/>
	<path style="fill:#EE2E4F;" d="M21.35,30.74H6.04L5.95,30.7l0.04,0.1v0.93c0,8.52,2.84,12.67,11.6,16.9l2.77,1.34l0.96,0.45
		l0.08,0.09l-0.01-0.13V30.82l0.03-0.12L21.35,30.74L21.35,30.74z"/>
	<path style="fill:#EE2E4F;" d="M30.05,30.74l-0.1-0.04l0.03,0.09v19.53l-0.03,0.15l0.1-0.12l0.88-0.4
		c11.89-5.6,14.57-8.93,14.57-18.15v-0.98l0.04-0.13l-0.13,0.04L30.05,30.74L30.05,30.74L30.05,30.74z"/>
	<path style="fill:#211E1E;" d="M8.48,23.02c0.04,0.05,0.07,0.08,0.09,0.1c0.03,0.04,0.07,0.08,0.1,0.12
		c0.02,0.02,0.06,0.06,0.12,0.12c0.02,0.03,0.06,0.06,0.1,0.1c-0.02,0.02-0.04,0.04-0.06,0.05l-0.13,0.12L8.6,23.76L8.56,23.8v0.12
		c0,1.07,0.28,1.8,0.88,2.28l0.1,0.09l-0.1,0.07l-0.12-0.01l-0.25-0.03l-0.22-0.04l-0.13-0.03l-0.13,0.96H8.39l-0.13-0.96
		l-0.13,0.03c-0.11,0.02-0.18,0.04-0.21,0.04l-0.26,0.03l-0.12,0.01c-0.05,0-0.1-0.02-0.1-0.04c0-0.02,0.02-0.05,0.06-0.08l0.2-0.15
		c0.17-0.13,0.28-0.28,0.47-0.67c0.08-0.18,0.13-0.33,0.13-0.44c0-0.28,0.04-0.5,0.09-0.5l0.02-0.49l0.01-0.18l-0.05-0.04
		l-0.11-0.12l-0.13-0.12l-0.05-0.05l0.1-0.1C8.36,23.18,8.38,23.16,8.48,23.02L8.48,23.02L8.48,23.02z M13.5,23.02
		c0.1,0.14,0.12,0.16,0.31,0.34c0.02,0.03,0.06,0.06,0.1,0.1l-0.05,0.05l-0.13,0.12l-0.1,0.12l-0.06,0.04l0.02,0.18l0.02,0.49
		c0.04,0.7,0.43,1.51,0.84,1.73c0.07,0.04,0.11,0.07,0.11,0.09c0,0.04-0.03,0.06-0.06,0.06l-0.17,0l-0.25-0.03l-0.23-0.04
		l-0.13-0.03l-0.13,0.95h-0.17l-0.13-0.95l-0.13,0.03l-0.23,0.04l-0.25,0.03l-0.12,0.01l-0.02,0c-0.05,0-0.09-0.02-0.09-0.05
		c0-0.02,0.02-0.06,0.05-0.08l0.2-0.15c0.18-0.13,0.22-0.2,0.47-0.68c0.09-0.19,0.14-0.33,0.14-0.44c0-0.28,0.04-0.5,0.08-0.5
		l0.03-0.49l0.01-0.18c-0.01-0.02-0.02-0.03-0.04-0.04l-0.12-0.12l-0.13-0.12l-0.05-0.05l0.1-0.1c0.06-0.06,0.1-0.1,0.12-0.12
		c0.02-0.02,0.06-0.06,0.11-0.12C13.43,23.1,13.46,23.06,13.5,23.02L13.5,23.02L13.5,23.02z M11,25.96l0.09,0.11l0.09,0.12
		c0.03,0.04,0.07,0.08,0.12,0.12l0.12,0.1l-0.06,0.05l-0.12,0.12l-0.12,0.1l-0.04,0.05v0.12c0,1.1,0.27,1.79,0.88,2.28l0.1,0.09
		l-0.1,0.07l-0.12-0.01l-0.26-0.03l-0.22-0.04l-0.13-0.03l-0.13,0.95h-0.18l-0.14-0.95l-0.13,0.03l-0.22,0.04l-0.25,0.03l-0.12,0.01
		h-0.01c-0.05,0-0.09-0.02-0.09-0.05c0-0.02,0.03-0.05,0.06-0.08l0.2-0.15c0.42-0.33,0.71-1.21,0.71-2.17v-0.12l-0.04-0.05
		l-0.12-0.1l-0.12-0.12l-0.06-0.06C10.77,26.23,10.87,26.13,11,25.96L11,25.96L11,25.96z M16.03,25.96
		c0.12,0.17,0.22,0.28,0.42,0.45l-0.07,0.05l-0.12,0.12l-0.12,0.1l-0.04,0.05l-0.01,0.12c0,0.72,0.21,1.59,0.45,1.87l0.27,0.3
		c0.02,0.02,0.07,0.06,0.14,0.12l0.12,0.09l-0.11,0.07l-0.12-0.01l-0.25-0.03l-0.23-0.04l-0.13-0.03l-0.13,0.95h-0.18l-0.13-0.95
		l-0.13,0.03l-0.23,0.04l-0.25,0.03l-0.12,0.01h-0.01c-0.05,0-0.09-0.02-0.09-0.05c0-0.02,0.02-0.05,0.06-0.08l0.19-0.15
		c0.42-0.33,0.73-1.22,0.73-2.17v-0.12l-0.04-0.05l-0.12-0.1l-0.12-0.12L15.6,26.4c0.06-0.04,0.09-0.08,0.12-0.1
		c0.04-0.04,0.08-0.08,0.12-0.12l0.09-0.12L16.03,25.96L16.03,25.96z M18.55,23.02c0.1,0.14,0.12,0.16,0.3,0.34
		c0.02,0.03,0.06,0.06,0.11,0.1l-0.05,0.05l-0.13,0.12l-0.1,0.12l-0.05,0.04l0.01,0.18l0.03,0.49c0.04,0.68,0.44,1.52,0.84,1.73
		c0.07,0.04,0.11,0.07,0.11,0.09c0,0.04-0.02,0.06-0.05,0.06l-0.17,0l-0.27-0.03c-0.08-0.01-0.15-0.02-0.23-0.04l-0.12-0.03
		l-0.13,0.95h-0.19l-0.13-0.95l-0.14,0.04l-0.22,0.03l-0.25,0.03l-0.12,0.01l-0.02,0c-0.05,0-0.09-0.02-0.09-0.05
		c0-0.02,0.02-0.05,0.06-0.08l0.2-0.15c0.17-0.14,0.23-0.22,0.46-0.68c0.09-0.19,0.14-0.34,0.14-0.44c0-0.28,0.04-0.5,0.08-0.5
		l0.03-0.49l0.01-0.18l-0.04-0.04l-0.12-0.12l-0.12-0.12c-0.01-0.01-0.03-0.03-0.07-0.05c0.04-0.03,0.07-0.07,0.11-0.1
		c0.04-0.04,0.08-0.08,0.12-0.12c0.04-0.04,0.08-0.08,0.11-0.12C18.47,23.1,18.5,23.06,18.55,23.02L18.55,23.02L18.55,23.02z
		 M32.83,22.99l0.09,0.12l0.09,0.1c0.06,0.07,0.1,0.12,0.12,0.13c0.02,0.02,0.06,0.06,0.12,0.11l-0.06,0.05l-0.12,0.12l-0.12,0.1
		l-0.04,0.05v0.11c0,1.07,0.36,2,0.88,2.28c0.08,0.04,0.11,0.08,0.11,0.11l0,0.02l-0.11,0.02h-0.12c-0.16,0-0.43-0.05-0.61-0.1
		l-0.13,0.95h-0.19l-0.13-0.95c-0.19,0.06-0.46,0.1-0.61,0.1h-0.12c-0.08,0-0.11-0.01-0.11-0.04c0-0.04,0.03-0.07,0.11-0.11
		c0.51-0.27,0.87-1.22,0.87-2.28v-0.11l-0.04-0.05l-0.12-0.1l-0.12-0.12l-0.07-0.05c0.05-0.05,0.1-0.08,0.12-0.11
		c0.02-0.01,0.06-0.06,0.12-0.13l0.09-0.1L32.83,22.99L32.83,22.99L32.83,22.99z M37.88,22.99l0.09,0.12l0.11,0.1l0.12,0.13
		l0.1,0.11l-0.06,0.05l-0.12,0.12L38,23.73l-0.04,0.05v0.11c0,1.05,0.36,2,0.88,2.28c0.08,0.04,0.11,0.08,0.11,0.11l-0.01,0.02
		l-0.11,0.02h-0.12c-0.16,0-0.43-0.05-0.61-0.1l-0.13,0.95h-0.19l-0.13-0.95c-0.21,0.07-0.44,0.1-0.66,0.1
		c-0.14,0-0.17-0.01-0.17-0.05c0-0.04,0.03-0.06,0.12-0.1c0.11-0.05,0.3-0.25,0.41-0.42c0.21-0.33,0.33-0.63,0.33-0.8
		c0-0.29,0.04-0.52,0.09-0.52l0.03-0.49l0.01-0.17l-0.05-0.05c-0.17-0.17-0.18-0.18-0.31-0.28l0.12-0.11l0.12-0.13l0.1-0.1
		L37.88,22.99L37.88,22.99L37.88,22.99z M35.36,25.93c0.03,0.03,0.06,0.07,0.09,0.1c0.05,0.06,0.09,0.1,0.11,0.12
		c0.01,0.01,0.05,0.06,0.11,0.12c0.03,0.03,0.07,0.05,0.11,0.1l-0.06,0.05l-0.12,0.13l-0.12,0.1l-0.04,0.05l0.01,0.17l0.02,0.49
		c0.04,0.72,0.42,1.51,0.84,1.73c0.08,0.04,0.11,0.08,0.11,0.12l-0.01,0.01l-0.1,0.02H36.2c-0.16,0-0.43-0.04-0.61-0.1l-0.13,0.95
		h-0.19l-0.13-0.95c-0.18,0.06-0.44,0.11-0.66,0.11c-0.13,0-0.17-0.01-0.17-0.06c0-0.04,0.04-0.06,0.12-0.1
		c0.1-0.05,0.31-0.25,0.41-0.42c0.22-0.35,0.34-0.65,0.34-0.79c0-0.29,0.03-0.52,0.08-0.52l0.02-0.49l0.01-0.17l-0.05-0.05
		l-0.11-0.1L35,26.43l-0.05-0.05l0.1-0.1C35.25,26.09,35.26,26.07,35.36,25.93L35.36,25.93L35.36,25.93z M40.45,25.93
		c0.03,0.03,0.06,0.07,0.09,0.1c0.05,0.06,0.09,0.1,0.11,0.12l0.12,0.12c0.04,0.03,0.07,0.07,0.1,0.1
		c-0.02,0.02-0.04,0.04-0.05,0.05c-0.08,0.07-0.12,0.12-0.13,0.13c-0.07,0.07-0.11,0.1-0.12,0.1c0,0.01-0.02,0.03-0.04,0.05
		l0.01,0.17l0.02,0.49c0.04,0.72,0.42,1.51,0.84,1.73c0.08,0.04,0.11,0.08,0.11,0.12l-0.01,0.01l-0.1,0.02h-0.12
		c-0.16,0-0.43-0.04-0.61-0.1l-0.13,0.95h-0.17l-0.15-0.95c-0.18,0.06-0.44,0.11-0.66,0.11c-0.14,0-0.17-0.01-0.17-0.06
		c0-0.04,0.03-0.06,0.12-0.1c0.1-0.05,0.31-0.25,0.41-0.42c0.21-0.35,0.34-0.65,0.34-0.79c0-0.29,0.03-0.52,0.08-0.52l0.02-0.49
		l0.01-0.17l-0.05-0.05l-0.11-0.1l-0.13-0.13l-0.05-0.05l0.1-0.1C40.33,26.09,40.35,26.07,40.45,25.93L40.45,25.93z M42.96,22.99
		l0.09,0.12l0.11,0.1l0.12,0.13l0.1,0.11l-0.06,0.05l-0.12,0.12l-0.12,0.1l-0.03,0.05v0.11c0,1.05,0.36,2,0.87,2.28
		c0.08,0.04,0.11,0.08,0.11,0.11l-0.01,0.02l-0.11,0.02H43.8c-0.16,0-0.43-0.05-0.61-0.1l-0.13,0.95h-0.19l-0.13-0.95
		c-0.22,0.07-0.44,0.1-0.66,0.1c-0.14,0-0.17-0.01-0.17-0.05c0-0.04,0.03-0.06,0.12-0.1c0.11-0.05,0.3-0.25,0.41-0.42
		c0.21-0.33,0.33-0.63,0.33-0.8c0-0.29,0.04-0.52,0.09-0.52l0.02-0.49l0.01-0.17l-0.16-0.16l-0.13-0.12l-0.05-0.05l0.1-0.11
		l0.12-0.13l0.1-0.1L42.96,22.99L42.96,22.99L42.96,22.99z M23.37,36.67c0.1,0.14,0.12,0.16,0.31,0.34c0.02,0.02,0.06,0.05,0.1,0.1
		l-0.05,0.05l-0.14,0.12l-0.1,0.12l-0.05,0.05l0.01,0.17l0.02,0.49c0.03,0.43,0.21,0.99,0.42,1.31c0.15,0.21,0.31,0.38,0.41,0.42
		c0.09,0.04,0.12,0.06,0.12,0.11c0,0.04-0.03,0.05-0.19,0.05c-0.21,0-0.48-0.04-0.65-0.1l-0.13,0.95h-0.19l-0.13-0.95
		c-0.18,0.05-0.45,0.1-0.61,0.1h-0.12c-0.08,0-0.11-0.01-0.11-0.04c0-0.04,0.03-0.07,0.11-0.11c0.13-0.07,0.31-0.25,0.41-0.42
		c0.24-0.39,0.35-0.65,0.35-0.79c0-0.29,0.04-0.52,0.08-0.52l0.03-0.49l0.01-0.17l-0.04-0.05l-0.12-0.12l-0.12-0.12l-0.07-0.05
		c0.03-0.04,0.07-0.07,0.1-0.1c0.04-0.04,0.08-0.08,0.12-0.12c0.04-0.04,0.08-0.08,0.11-0.12C23.3,36.74,23.33,36.71,23.37,36.67
		L23.37,36.67L23.37,36.67z M28.09,36.67c0.1,0.14,0.12,0.16,0.3,0.34c0.04,0.03,0.07,0.07,0.11,0.1l-0.05,0.05l-0.13,0.12
		l-0.11,0.12l-0.05,0.05l0.01,0.17l0.03,0.49c0.02,0.43,0.2,0.99,0.42,1.31c0.14,0.21,0.31,0.38,0.41,0.42
		c0.09,0.04,0.12,0.06,0.12,0.11c0,0.04-0.03,0.05-0.19,0.05c-0.21,0-0.48-0.04-0.65-0.1l-0.13,0.95H28l-0.13-0.95
		c-0.18,0.05-0.45,0.1-0.61,0.1h-0.12c-0.07,0-0.11-0.01-0.11-0.04c0-0.04,0.03-0.07,0.11-0.11c0.13-0.07,0.31-0.25,0.41-0.42
		c0.23-0.39,0.35-0.65,0.35-0.79c0-0.29,0.03-0.52,0.08-0.52L28,37.64l0.01-0.17l-0.04-0.05l-0.24-0.24l-0.07-0.05
		c0.03-0.04,0.07-0.07,0.11-0.1c0.04-0.04,0.08-0.08,0.12-0.12c0.04-0.04,0.07-0.08,0.1-0.12C28.03,36.75,28.05,36.72,28.09,36.67
		L28.09,36.67L28.09,36.67z M25.69,40.96l0.06,0.14l0.12,0.08l0.12,0.13l0.1,0.1l-0.05,0.06l-0.13,0.12
		c-0.01,0.01-0.05,0.05-0.1,0.11c-0.01,0.01-0.03,0.03-0.05,0.05l0.01,0.17l0.02,0.49c0.04,0.72,0.44,1.56,0.84,1.73
		c0.09,0.04,0.12,0.07,0.12,0.11l-0.01,0.03l-0.09,0.04l-0.12-0.01l-0.27-0.03c-0.08-0.01-0.15-0.02-0.22-0.04l-0.12-0.03
		l-0.14,0.96h-0.17l-0.13-0.96l-0.13,0.03l-0.23,0.04l-0.25,0.03l-0.12,0.01l-0.01,0c-0.06,0-0.09-0.03-0.09-0.06
		c0-0.04,0.03-0.07,0.11-0.11c0.13-0.07,0.31-0.25,0.41-0.42c0.24-0.39,0.34-0.65,0.34-0.8c0-0.29,0.04-0.52,0.08-0.52l0.03-0.49
		l0.01-0.17l-0.04-0.05l-0.12-0.11l-0.12-0.12l-0.07-0.06l0.11-0.1l0.12-0.13l0.11-0.11L25.69,40.96L25.69,40.96L25.69,40.96z
		 M23.34,45.33l0.09,0.12l0.11,0.11l0.12,0.13l0.09,0.12l-0.05,0.04l-0.12,0.12l-0.12,0.1l-0.04,0.05l0.01,0.17l0.03,0.49
		c0.04,0.72,0.41,1.51,0.83,1.73c0.08,0.05,0.11,0.08,0.11,0.12l-0.01,0.01l-0.11,0.02h-0.12c-0.11,0-0.3-0.02-0.61-0.09l-0.13,0.94
		h-0.18l-0.13-0.94c-0.28,0.06-0.49,0.09-0.67,0.09c-0.14,0-0.17-0.01-0.17-0.06c0-0.04,0.03-0.06,0.11-0.1
		c0.11-0.04,0.31-0.25,0.41-0.42c0.22-0.35,0.34-0.64,0.34-0.79c0-0.29,0.03-0.52,0.08-0.52l0.02-0.49l0.01-0.17
		c-0.02-0.02-0.04-0.04-0.05-0.05c-0.06-0.05-0.09-0.09-0.1-0.1l-0.13-0.12l-0.05-0.05l0.11-0.1l0.12-0.13l0.1-0.11L23.34,45.33
		L23.34,45.33L23.34,45.33z M28.09,45.33l0.08,0.12l0.11,0.11l0.1,0.15l0.13,0.09l-0.05,0.05l-0.13,0.12
		c-0.04,0.04-0.07,0.07-0.11,0.1c-0.01,0.01-0.03,0.04-0.05,0.06l0.01,0.17l0.03,0.49c0.02,0.43,0.2,0.99,0.42,1.31
		c0.14,0.21,0.31,0.38,0.41,0.42c0.09,0.04,0.12,0.07,0.12,0.11c0,0.05-0.03,0.05-0.18,0.05c-0.17,0-0.38-0.03-0.66-0.09l-0.13,0.94
		H28l-0.13-0.94c-0.31,0.06-0.5,0.09-0.61,0.09h-0.12c-0.07,0-0.11-0.01-0.11-0.04c0-0.04,0.03-0.07,0.11-0.11
		c0.13-0.06,0.31-0.25,0.41-0.42c0.23-0.39,0.34-0.64,0.34-0.79c0-0.29,0.03-0.52,0.08-0.52L28,46.3l0.01-0.17l-0.04-0.06l-0.12-0.1
		l-0.12-0.12l-0.07-0.05l0.11-0.1l0.12-0.13l0.1-0.11L28.09,45.33L28.09,45.33L28.09,45.33z M25.69,32.36l0.08,0.12l0.1,0.1
		l0.12,0.13l0.1,0.11l-0.05,0.05l-0.13,0.12c-0.01,0.01-0.05,0.04-0.1,0.1c-0.01,0.01-0.03,0.03-0.05,0.05l0.01,0.17l0.02,0.49
		c0.04,0.72,0.45,1.58,0.84,1.74c0.08,0.04,0.11,0.06,0.11,0.1c0,0.05-0.03,0.06-0.17,0.06c-0.17,0-0.38-0.03-0.66-0.09l-0.14,0.95
		h-0.17l-0.13-0.95c-0.32,0.06-0.5,0.09-0.61,0.09h-0.12c-0.08,0-0.11-0.01-0.11-0.04c0-0.04,0.03-0.07,0.11-0.11
		c0.13-0.07,0.31-0.25,0.41-0.42c0.24-0.39,0.34-0.64,0.34-0.8c0-0.29,0.04-0.52,0.08-0.52l0.03-0.49l0.02-0.17l-0.04-0.05
		l-0.12-0.1l-0.12-0.12l-0.07-0.05l0.11-0.11l0.12-0.13l0.11-0.1L25.69,32.36L25.69,32.36z M23.3,8.19c0.04,0.04,0.07,0.08,0.09,0.1
		c0.03,0.04,0.07,0.08,0.11,0.12l0.22,0.22l-0.05,0.05L23.54,8.8c-0.01,0.01-0.05,0.05-0.12,0.12c-0.01,0.01-0.03,0.02-0.04,0.04
		l0.01,0.18l0.03,0.48c0.03,0.46,0.23,1.1,0.42,1.32l0.26,0.3c0.05,0.04,0.1,0.08,0.15,0.12l0.11,0.09l-0.11,0.07l-0.12-0.01
		l-0.25-0.03l-0.23-0.04l-0.13-0.03l-0.14,0.91l-0.16,0.04l-0.13-0.95l-0.13,0.03l-0.23,0.04l-0.26,0.03l-0.14,0.01
		c-0.05,0-0.08-0.02-0.08-0.04c0-0.03,0.02-0.05,0.05-0.08c0.01-0.01,0.08-0.06,0.2-0.15c0.17-0.13,0.22-0.2,0.46-0.67
		c0.1-0.19,0.15-0.34,0.15-0.44c0-0.29,0.03-0.52,0.08-0.52l0.03-0.48l0.01-0.18l-0.05-0.05l-0.1-0.12l-0.13-0.12l-0.05-0.05
		c0.04-0.03,0.07-0.07,0.1-0.1C23.18,8.35,23.2,8.33,23.3,8.19L23.3,8.19L23.3,8.19z M28.09,8.19c0.1,0.14,0.12,0.16,0.3,0.34
		c0.04,0.04,0.07,0.07,0.11,0.1l-0.05,0.06l-0.13,0.12l-0.11,0.12l-0.05,0.04l0.01,0.18l0.03,0.48c0.04,0.7,0.43,1.54,0.83,1.75
		c0.07,0.04,0.11,0.07,0.11,0.09c0,0.04-0.02,0.06-0.05,0.06l-0.16,0l-0.27-0.03c-0.08-0.01-0.15-0.02-0.23-0.04l-0.12-0.02
		l-0.13,0.95H28l-0.13-0.95l-0.14-0.01l-0.21,0.08l-0.25,0.03l-0.12,0.01l-0.01,0c-0.05,0-0.09-0.02-0.09-0.04
		c0-0.02,0.02-0.05,0.06-0.08l0.19-0.15c0.18-0.14,0.24-0.22,0.46-0.67c0.1-0.19,0.15-0.34,0.15-0.44c0-0.29,0.03-0.52,0.08-0.52
		L28,9.15l0.01-0.18l-0.04-0.04l-0.12-0.12l-0.12-0.12c-0.01-0.01-0.03-0.03-0.07-0.05c0.04-0.03,0.07-0.07,0.11-0.1
		c0.06-0.06,0.1-0.1,0.12-0.12c0.02-0.03,0.05-0.06,0.1-0.12C28.03,8.27,28.05,8.23,28.09,8.19L28.09,8.19L28.09,8.19z M25.66,12.33
		l0.09,0.1l0.11,0.12c0.06,0.07,0.1,0.11,0.12,0.13c0.02,0.03,0.06,0.06,0.1,0.11l-0.06,0.05l-0.12,0.12l-0.12,0.1l-0.04,0.05
		l0.01,0.17l0.01,0.45c0.04,0.72,0.43,1.55,0.85,1.77c0.08,0.04,0.11,0.08,0.11,0.12l-0.01,0.01l-0.1,0.03h-0.12
		c-0.16,0-0.43-0.05-0.61-0.11l-0.13,0.95h-0.18l-0.13-0.95c-0.18,0.06-0.44,0.11-0.66,0.11c-0.14,0-0.17-0.01-0.17-0.05
		c0-0.04,0.03-0.07,0.12-0.11c0.11-0.04,0.3-0.24,0.41-0.42c0.21-0.34,0.33-0.63,0.33-0.79c0-0.29,0.04-0.52,0.09-0.52l0.02-0.49
		l0.01-0.17c-0.02-0.02-0.04-0.03-0.05-0.05l-0.1-0.1l-0.13-0.12l-0.05-0.05l0.1-0.11l0.12-0.13c0.06-0.07,0.09-0.11,0.1-0.12
		C25.61,12.4,25.63,12.37,25.66,12.33L25.66,12.33L25.66,12.33z M23.29,16.46l0.09,0.11l0.09,0.12c0.04,0.04,0.08,0.08,0.12,0.12
		l0.12,0.11c-0.04,0.03-0.06,0.05-0.07,0.05l-0.12,0.12l-0.16,0.16v0.12c0,0.7,0.21,1.58,0.44,1.82l0.29,0.34
		c0,0,0.05,0.04,0.15,0.12l0.1,0.08l-0.1,0.07l-0.12-0.01l-0.25-0.03l-0.23-0.04l-0.13-0.03l-0.13,0.96H23.2l-0.13-0.96l-0.13,0.03
		l-0.23,0.04l-0.25,0.03l-0.12,0.01h-0.02c-0.05,0-0.09-0.02-0.09-0.04c0-0.02,0.02-0.06,0.06-0.08l0.2-0.15
		c0.44-0.35,0.73-1.2,0.73-2.17v-0.12l-0.04-0.04l-0.12-0.12c-0.06-0.06-0.1-0.1-0.12-0.12c-0.01,0-0.03-0.03-0.07-0.05
		c0.04-0.04,0.08-0.07,0.12-0.11c0.04-0.04,0.08-0.08,0.12-0.12l0.09-0.12L23.29,16.46L23.29,16.46L23.29,16.46z M28.07,16.46
		c0.03,0.04,0.06,0.07,0.09,0.11c0.05,0.06,0.08,0.09,0.1,0.12c0.02,0.01,0.06,0.06,0.12,0.12l0.11,0.11
		c-0.02,0.02-0.04,0.03-0.06,0.05l-0.28,0.28l0.02,0.19l0.02,0.49c0.04,0.73,0.33,1.32,0.84,1.74l0.1,0.08l-0.1,0.07L28.9,19.8
		l-0.25-0.03l-0.22-0.04l-0.13-0.03l-0.13,0.95h-0.19l-0.15-0.99c-0.24,0.05-0.25,0.1-0.33,0.11l-0.27,0.02l-0.12,0.01H27.1
		c-0.04,0-0.08-0.02-0.08-0.05c0-0.03,0.02-0.05,0.05-0.08l0.2-0.15c0.17-0.13,0.22-0.2,0.46-0.67c0.09-0.18,0.14-0.33,0.14-0.44
		c0-0.28,0.04-0.5,0.08-0.5l0.03-0.49L28,17.25l-0.05-0.04l-0.11-0.12l-0.13-0.12l-0.05-0.05c0.03-0.04,0.07-0.07,0.1-0.11
		C27.95,16.62,27.97,16.6,28.07,16.46L28.07,16.46L28.07,16.46z M18.15,14.33l0.05,0.2c0.04,0.18,0.08,0.33,0.1,0.43
		c0.17,0.75,0.31,0.95,0.67,0.95c0.21,0,0.38-0.12,0.44-0.29l0.08-0.27c0.02-0.06,0.06-0.1,0.13-0.1c0.14,0,0.21,0.15,0.22,0.48
		c0.01,0.1,0.03,0.31,0.09,0.65c0.03,0.19,0.05,0.39,0.05,0.58c0,0.17-0.01,0.24-0.08,0.41c0.04,0.26,0.08,0.61,0.08,0.81
		c0,0.33-0.06,0.63-0.16,0.79c0.06,0.22,0.07,0.31,0.07,0.5c0,0.15-0.01,0.29-0.04,0.44c-0.06,0.32-0.07,0.4-0.07,0.46
		c0,0.06,0.01,0.12,0.03,0.18c0.03,0.08,0.04,0.13,0.04,0.16c0,0.04-0.02,0.06-0.04,0.06l-0.27-0.1l-0.29-0.16
		c-0.09-0.05-0.16-0.1-0.31-0.24c-0.26,0.23-0.33,0.27-1.01,0.45c-0.13,0.04-0.23,0.08-0.29,0.12c-0.08,0.06-0.14,0.09-0.18,0.09
		c-0.11,0-0.17-0.19-0.17-0.56c0-0.29,0.03-0.54,0.08-0.74c-0.2-0.08-0.37-0.12-0.48-0.12c-0.02,0-0.08,0.01-0.2,0.03l-0.05,0
		c-0.04,0-0.07-0.06-0.07-0.13c0-0.05,0.03-0.18,0.08-0.29l0.13-0.32c0.05-0.11,0.16-0.25,0.32-0.38c0.13-0.11,0.25-0.18,0.34-0.2
		l0.47-0.09c0.29-0.06,0.45-0.21,0.45-0.4c0-0.19-0.12-0.32-0.41-0.42l-0.57-0.2c-0.18-0.07-0.35-0.15-0.52-0.25
		c-0.32-0.19-0.37-0.21-0.44-0.21c-0.11,0-0.18,0.08-0.18,0.23c0,0.24,0.15,0.4,0.37,0.4c0.05,0,0.09-0.01,0.13-0.03
		c0.06-0.03,0.11-0.04,0.13-0.04c0.06,0,0.09,0.04,0.09,0.1l-0.01,0.05l-0.03,0.23c-0.02,0.19-0.15,0.43-0.42,0.8l-0.12,0.16
		c-0.11,0.42-0.37,0.81-0.71,1.04c-0.05,0.03-0.1,0.07-0.15,0.11c-0.04,0.06-0.08,0.12-0.11,0.19c-0.02,0.05-0.11,0.16-0.26,0.31
		c-0.1,0.11-0.21,0.21-0.34,0.31c-0.15,0.11-0.24,0.19-0.26,0.24l-0.13,0.22c-0.02,0.04-0.06,0.07-0.11,0.07
		c-0.12,0-0.23-0.12-0.29-0.33c-0.05-0.15-0.09-0.2-0.19-0.2c-0.05,0-0.13,0.01-0.23,0.04l-0.19,0.03h-0.48
		c-0.23,0-0.57,0.06-0.73,0.13c-0.06,0.03-0.1,0.04-0.13,0.04c-0.03,0-0.05-0.01-0.09-0.08c-0.02-0.03-0.03-0.07-0.03-0.1
		c0-0.24,0.17-0.7,0.4-1.06c0.14-0.23,0.19-0.29,0.36-0.43c-0.05-0.22-0.2-0.39-0.37-0.45l-0.22-0.06
		c-0.03-0.01-0.05-0.04-0.05-0.07c0-0.06,0.11-0.16,0.31-0.27c0.26-0.13,0.52-0.21,0.72-0.21c0.22,0,0.43,0.09,0.68,0.28
		c0.36,0.28,0.46,0.33,0.63,0.33c0.29,0,0.55-0.26,0.55-0.53c0-0.18-0.09-0.38-0.35-0.7c-0.37-0.48-0.48-0.72-0.48-1.08
		c0-0.22,0.07-0.49,0.15-0.62l0.13-0.2c0.03-0.04,0.04-0.08,0.04-0.13c0-0.09-0.1-0.15-0.24-0.15c-0.21,0-0.61,0.15-0.93,0.35
		c-0.16,0.09-0.27,0.21-0.27,0.28c0,0.04,0.02,0.08,0.05,0.1l0.15,0.09c0.02,0.01,0.03,0.03,0.03,0.05c0,0.02-0.02,0.06-0.05,0.1
		l-0.27,0.34c-0.17,0.21-0.35,0.4-0.56,0.58c-0.07,0.06-0.11,0.1-0.13,0.13c0,0-0.04,0.07-0.11,0.2c-0.09,0.18-0.34,0.44-0.58,0.6
		c-0.07,0.04-0.13,0.09-0.19,0.15c-0.02,0.02-0.05,0.08-0.1,0.19c-0.05,0.1-0.11,0.19-0.17,0.28c-0.13,0.19-0.24,0.33-0.32,0.41
		l-0.37,0.37c-0.12,0.11-0.22,0.33-0.37,0.82c-0.1,0.29-0.18,0.46-0.23,0.46c-0.02,0-0.06-0.03-0.1-0.08
		c-0.26-0.3-0.49-0.48-0.61-0.48c-0.03,0-0.08,0.02-0.15,0.07c-0.11,0.07-0.23,0.11-0.36,0.13l-0.49,0.09
		c-0.37,0.07-0.52,0.15-0.73,0.4c-0.05,0.06-0.09,0.09-0.11,0.09c-0.05,0-0.07-0.07-0.07-0.16l0.01-0.12l0.06-0.36
		c0.07-0.38,0.16-0.67,0.27-0.86l0.23-0.41c0.04-0.06,0.06-0.14,0.06-0.22c0-0.31-0.31-0.58-0.7-0.62c-0.1-0.01-0.14-0.04-0.14-0.09
		c0-0.07,0.11-0.2,0.26-0.31c0.27-0.2,0.61-0.34,0.83-0.34c0.14,0,0.34,0.06,0.6,0.16l0.29,0.12c0.09,0.04,0.19,0.07,0.3,0.07
		c0.31,0,0.61-0.28,0.97-0.91c0.17-0.29,0.24-0.49,0.24-0.68c0-0.33-0.16-0.54-0.42-0.54c-0.2,0-0.42,0.09-0.57,0.25
		c-0.14,0.13-0.21,0.27-0.21,0.41l0.01,0.15v0.04c0,0.12-0.04,0.19-0.11,0.19c-0.12,0-0.31-0.18-0.83-0.81
		C8,15.46,7.91,15.26,7.9,14.79c-0.45-0.57-0.56-0.82-0.56-1.22l0.02-0.28c-0.32-0.37-0.4-0.58-0.4-0.92c0-0.12,0.02-0.2,0.1-0.35
		c-0.16-0.23-0.21-0.33-0.26-0.52l-0.06-0.27c-0.04-0.18-0.11-0.34-0.21-0.49c-0.12-0.17-0.13-0.19-0.13-0.25
		c0-0.16,0.1-0.22,0.57-0.33c-0.02-0.1-0.03-0.2-0.03-0.3c0-0.08,0.01-0.15,0.04-0.31l0.09-0.49c0.04-0.2,0.06-0.34,0.06-0.42
		c0-0.09-0.01-0.16-0.1-0.42C6.98,8.06,6.94,7.96,6.9,7.91C6.86,7.84,6.83,7.76,6.83,7.73c0-0.05,0.03-0.08,0.09-0.08
		c0.13,0,0.48,0.21,0.84,0.51C8.51,8.79,8.67,9.04,8.77,9.8c0.02,0.09,0.03,0.18,0.04,0.27c0.36,0.27,0.56,0.59,0.56,0.94
		c0,0.27-0.1,0.6-0.27,0.85l-0.26,0.41c-0.08,0.12-0.12,0.28-0.12,0.44c0,0.25,0.07,0.48,0.25,0.8c0.21,0.35,0.38,0.5,0.6,0.5
		c0.35,0,0.65-0.61,0.65-1.3v-0.09l-0.01-0.24c0-0.13,0.01-0.27,0.03-0.44c0.02-0.21,0.03-0.33,0.04-0.38l0.01-0.31l0.01-0.21
		c0-0.07-0.04-0.15-0.14-0.25l-0.29-0.32C9.45,9.99,9.22,9.56,9.22,9.23c0-0.4,0.29-0.7,0.68-0.7c0.08,0,0.15,0.01,0.28,0.05V8.49
		c0-0.58,0.12-1.01,0.28-1.01l0.06,0.02l0.24,0.21l0.29,0.19l0.08,0.08c0-0.17,0.01-0.18,0.17-0.37c0.04-0.05,0.1-0.13,0.19-0.26
		c0.07-0.09,0.11-0.16,0.13-0.2c0.02-0.04,0.04-0.07,0.06-0.12c0.03-0.07,0.07-0.1,0.11-0.1c0.04,0,0.07,0.05,0.12,0.19
		c0.03,0.09,0.05,0.11,0.28,0.32c0.06,0.05,0.11,0.11,0.16,0.17c0.02,0.04,0.05,0.13,0.1,0.27c0.01,0.02,0.02,0.06,0.04,0.11
		c0.1-0.13,0.15-0.17,0.27-0.24l0.2-0.12c0.07-0.04,0.13-0.07,0.15-0.07c0.02,0,0.05,0.03,0.06,0.08c0.02,0.05,0.06,0.11,0.11,0.2
		c0.14,0.25,0.19,0.37,0.19,0.48v0.29c0.43,0.14,0.6,0.36,0.6,0.83c0,0.34-0.18,0.73-0.52,1.13c-0.23,0.27-0.26,0.33-0.26,0.52
		c0,0.98,0.68,1.55,1.89,1.56l0.89,0.01c0.57,0.01,0.91,0.06,1.44,0.24c0.63,0.21,0.81,0.26,0.99,0.26c0.06,0,0.12-0.02,0.17-0.05
		c0.05-0.04,0.08-0.08,0.08-0.12c0-0.19-0.32-0.33-1.39-0.64c-2.18-0.62-3.11-1.5-3.11-2.95c0-1.12,0.93-1.98,2.13-1.98
		c0.39,0,0.99,0.1,1.33,0.23l0.54,0.2c0.09,0.03,0.19,0.05,0.28,0.05c0.19,0,0.28-0.15,0.29-0.47c0-0.17,0.04-0.22,0.15-0.22
		c0.15,0,0.39,0.19,0.61,0.49c0.22,0.31,0.36,0.64,0.36,0.87c0,0.3-0.14,0.51-0.47,0.69c-0.3,0.45-0.66,0.66-1.15,0.66
		c-0.38,0-0.92-0.22-1.83-0.73c-0.31-0.18-0.47-0.24-0.64-0.24c-0.23,0-0.38,0.14-0.38,0.34c0,0.19,0.15,0.32,0.53,0.45
		c0.57,0.2,0.71,0.28,0.94,0.52c0.67,0.12,0.97,0.24,1.39,0.56c1.16,0.37,1.88,1.16,1.88,2.07c0,0.88-0.6,1.52-1.43,1.52
		C18.58,14.41,18.45,14.4,18.15,14.33L18.15,14.33L18.15,14.33z M42.86,14.33l0.05,0.2c0.04,0.18,0.08,0.33,0.1,0.43
		c0.17,0.75,0.31,0.95,0.68,0.95c0.21,0,0.38-0.12,0.44-0.29l0.08-0.27c0.02-0.06,0.07-0.1,0.13-0.09c0.14,0,0.22,0.16,0.23,0.48
		c0,0.12,0.03,0.34,0.08,0.65c0.03,0.2,0.05,0.41,0.05,0.61c0,0.13-0.02,0.21-0.08,0.38l0.02,0.16c0.04,0.26,0.05,0.36,0.05,0.49
		c0,0.57-0.02,0.73-0.16,0.96c0.05,0.22,0.07,0.32,0.07,0.48c0,0.1-0.01,0.24-0.04,0.46l-0.05,0.4l0.01,0.23
		c0.03,0.09,0.05,0.14,0.05,0.16c0,0.04-0.02,0.06-0.05,0.06l-0.27-0.1l-0.29-0.16c-0.09-0.05-0.16-0.1-0.31-0.24
		c-0.26,0.23-0.29,0.25-0.6,0.33c-0.44,0.12-0.6,0.18-0.69,0.24c-0.08,0.06-0.15,0.09-0.18,0.09c-0.1,0-0.18-0.2-0.18-0.49
		c0-0.42,0.03-0.64,0.09-0.81c-0.26-0.09-0.39-0.12-0.48-0.12c-0.03,0-0.05,0-0.19,0.03l-0.06,0c-0.04,0-0.06-0.05-0.06-0.13
		c0-0.13,0.09-0.39,0.22-0.61c0.17-0.3,0.44-0.54,0.65-0.58l0.48-0.09c0.28-0.05,0.45-0.21,0.45-0.4c0-0.19-0.12-0.32-0.41-0.42
		l-0.56-0.2c-0.19-0.07-0.36-0.15-0.53-0.25c-0.1-0.06-0.19-0.12-0.29-0.17c-0.04-0.03-0.09-0.04-0.14-0.04
		c-0.12,0-0.19,0.08-0.19,0.22c0,0.23,0.17,0.41,0.38,0.41c0.05,0,0.09-0.01,0.13-0.03c0.06-0.03,0.1-0.04,0.12-0.04
		c0.06,0,0.1,0.06,0.1,0.14c0,0.24-0.15,0.64-0.31,0.84l-0.16,0.2l-0.12,0.16c-0.05,0.34-0.38,0.83-0.71,1.04
		c-0.08,0.05-0.13,0.09-0.15,0.11c-0.04,0.06-0.07,0.12-0.11,0.19c-0.02,0.05-0.11,0.16-0.26,0.31c-0.1,0.11-0.21,0.21-0.34,0.31
		c-0.15,0.11-0.24,0.19-0.27,0.24l-0.13,0.22c-0.03,0.05-0.06,0.07-0.1,0.07c-0.12,0-0.23-0.12-0.29-0.33
		c-0.05-0.15-0.09-0.2-0.19-0.2c-0.05,0-0.13,0.01-0.23,0.04l-0.19,0.03h-0.46c-0.25,0-0.59,0.06-0.74,0.13
		c-0.06,0.03-0.1,0.04-0.13,0.04c-0.07,0-0.1-0.07-0.1-0.2c0-0.42,0.32-1.06,0.74-1.47c-0.06-0.24-0.19-0.4-0.36-0.45
		c-0.15-0.04-0.23-0.06-0.24-0.06c-0.03-0.01-0.04-0.04-0.04-0.07c0-0.08,0.1-0.17,0.3-0.27c0.38-0.18,0.49-0.21,0.7-0.21
		c0.24,0,0.44,0.08,0.7,0.28c0.36,0.28,0.46,0.33,0.63,0.33c0.28,0,0.55-0.26,0.55-0.53c0-0.19-0.1-0.39-0.35-0.7
		c-0.35-0.45-0.48-0.74-0.48-1.13c0-0.25,0.05-0.39,0.28-0.77c0.03-0.06,0.05-0.11,0.05-0.14c0-0.07-0.12-0.14-0.25-0.14
		c-0.14,0-0.32,0.05-0.56,0.16c-0.4,0.18-0.64,0.35-0.64,0.46c0,0.04,0.03,0.08,0.07,0.11l0.13,0.09c0.02,0.01,0.02,0.03,0.02,0.05
		c-0.01,0.04-0.03,0.08-0.06,0.1c-0.02,0.03-0.11,0.14-0.26,0.34c-0.19,0.25-0.36,0.43-0.56,0.58c-0.07,0.05-0.11,0.1-0.13,0.13
		l-0.11,0.2c-0.09,0.17-0.35,0.44-0.57,0.59c-0.06,0.05-0.13,0.1-0.19,0.15c-0.03,0.03-0.07,0.09-0.12,0.19
		c-0.14,0.24-0.35,0.54-0.49,0.68l-0.36,0.37c-0.1,0.11-0.24,0.41-0.38,0.82c-0.11,0.32-0.18,0.46-0.23,0.46
		c-0.02,0-0.06-0.03-0.1-0.08c-0.26-0.3-0.49-0.48-0.6-0.48c-0.03,0-0.08,0.02-0.15,0.06c-0.11,0.07-0.23,0.11-0.36,0.13l-0.47,0.09
		c-0.4,0.08-0.56,0.16-0.74,0.4c-0.05,0.06-0.08,0.09-0.11,0.09c-0.04,0-0.08-0.07-0.08-0.16l0.01-0.12c0-0.01,0.02-0.13,0.06-0.36
		c0.07-0.37,0.17-0.69,0.27-0.85l0.24-0.41c0.04-0.07,0.07-0.15,0.07-0.21c0-0.31-0.29-0.56-0.71-0.62
		c-0.09-0.01-0.13-0.05-0.13-0.1c0-0.06,0.1-0.18,0.27-0.3c0.28-0.21,0.59-0.35,0.81-0.35c0.15,0,0.34,0.05,0.61,0.16l0.29,0.12
		c0.09,0.04,0.19,0.07,0.29,0.07c0.31,0,0.61-0.28,0.98-0.92c0.17-0.29,0.24-0.49,0.24-0.68c0-0.33-0.15-0.54-0.41-0.54
		c-0.21,0-0.4,0.09-0.57,0.25c-0.14,0.15-0.22,0.29-0.22,0.42l0,0.13l0,0.07c0,0.11-0.03,0.16-0.11,0.16c-0.1,0-0.22-0.1-0.45-0.37
		c-0.09-0.12-0.22-0.26-0.37-0.44c-0.4-0.47-0.49-0.66-0.5-1.14c-0.45-0.57-0.56-0.89-0.56-1.22l0.01-0.27
		c-0.32-0.38-0.38-0.54-0.38-0.92c0-0.17,0.01-0.22,0.08-0.36c-0.16-0.23-0.21-0.33-0.25-0.52l-0.06-0.27
		c-0.04-0.18-0.11-0.34-0.21-0.49c-0.12-0.17-0.13-0.2-0.13-0.25c0-0.14,0.13-0.23,0.46-0.31l0.11-0.02
		c-0.02-0.1-0.03-0.2-0.03-0.29c0-0.08,0.01-0.15,0.04-0.31l0.09-0.49c0.03-0.19,0.05-0.33,0.05-0.43c0-0.11-0.01-0.21-0.08-0.41
		c-0.04-0.13-0.09-0.24-0.13-0.31c-0.05-0.07-0.08-0.13-0.08-0.17c0-0.04,0.04-0.08,0.1-0.08c0.03,0,0.09,0.02,0.13,0.04
		c0.45,0.25,0.94,0.63,1.28,1.02c0.3,0.33,0.39,0.61,0.46,1.35c0.41,0.3,0.56,0.58,0.56,1c0,0.26-0.08,0.5-0.27,0.78
		c-0.16,0.25-0.25,0.38-0.26,0.41c-0.08,0.14-0.12,0.29-0.12,0.45c0,0.24,0.07,0.46,0.25,0.78c0.2,0.35,0.38,0.5,0.59,0.5
		c0.34,0,0.66-0.6,0.66-1.26v-0.49l0.03-0.32L35,11.55l0.02-0.31l0.01-0.18c0-0.13-0.03-0.17-0.43-0.61
		c-0.45-0.48-0.66-0.89-0.66-1.27c0-0.35,0.3-0.65,0.67-0.65c0.07,0,0.14,0.01,0.27,0.05V8.42l0.01-0.28l0.08-0.34
		c0.06-0.27,0.09-0.33,0.19-0.33l0.06,0.02l0.24,0.21l0.29,0.19l0.08,0.08c0.02-0.17,0.03-0.2,0.17-0.37
		c0.07-0.08,0.13-0.17,0.19-0.26l0.13-0.2l0.08-0.12c0.05-0.08,0.07-0.1,0.11-0.1s0.06,0.05,0.1,0.2c0.01,0.06,0.06,0.12,0.12,0.17
		l0.17,0.14c0.14,0.12,0.23,0.29,0.29,0.55c0.1-0.13,0.16-0.18,0.27-0.24l0.21-0.12c0.08-0.04,0.12-0.07,0.14-0.07
		c0.01,0,0.04,0.03,0.06,0.08c0.03,0.07,0.07,0.14,0.11,0.2c0.17,0.27,0.19,0.31,0.19,0.5l-0.01,0.11v0.16
		c0.43,0.12,0.6,0.35,0.6,0.82c0,0.36-0.16,0.73-0.51,1.14C38.04,10.84,38,10.93,38,11.13c0,0.93,0.71,1.5,1.9,1.52l0.88,0.01
		c0.57,0.01,0.92,0.07,1.44,0.24c0.62,0.2,0.81,0.26,1,0.26c0.13,0,0.25-0.07,0.25-0.17c0-0.19-0.32-0.34-1.39-0.64
		c-2.18-0.62-3.12-1.5-3.12-2.94c0-1.12,0.94-1.98,2.14-1.98c0.38,0,0.98,0.1,1.31,0.22l0.55,0.2c0.09,0.03,0.18,0.05,0.28,0.06
		c0.19,0,0.26-0.11,0.29-0.47c0.01-0.15,0.06-0.22,0.16-0.22c0.14,0,0.41,0.22,0.61,0.49c0.2,0.28,0.34,0.65,0.34,0.89
		c0,0.28-0.15,0.5-0.46,0.67c-0.3,0.45-0.66,0.66-1.15,0.66c-0.38,0-1.02-0.26-1.83-0.73c-0.32-0.18-0.46-0.24-0.63-0.24
		c-0.24,0-0.39,0.13-0.39,0.34c0,0.19,0.14,0.31,0.54,0.45c0.63,0.23,0.76,0.3,0.94,0.52c0.67,0.12,0.97,0.24,1.39,0.56
		c1.21,0.39,1.88,1.14,1.88,2.09c0,0.87-0.59,1.5-1.41,1.5C43.29,14.41,43.17,14.39,42.86,14.33L42.86,14.33z M18.4,39.33
		c0.12,0.3,0.16,0.44,0.17,0.63l0.03,0.56c0.02,0.56,0.21,0.83,0.56,0.83c0.13,0,0.24-0.04,0.29-0.09l0.14-0.14l0.06-0.02
		c0.09,0,0.14,0.06,0.14,0.17l-0.01,0.22c-0.01,0.1,0,0.3,0.05,0.61c0.03,0.18,0.04,0.36,0.04,0.53c0,0.29-0.02,0.39-0.12,0.64
		c0.09,0.26,0.15,0.56,0.15,0.8c0,0.29-0.05,0.48-0.16,0.64c0.05,0.23,0.06,0.32,0.06,0.45c0,0.17-0.02,0.34-0.05,0.5
		c-0.04,0.27-0.06,0.49-0.05,0.63v0.04c0,0.08-0.02,0.13-0.08,0.13c-0.05,0-0.11-0.04-0.16-0.11c-0.08-0.1-0.13-0.14-0.19-0.14
		c-0.09,0-0.12,0.05-0.26,0.45c-0.04,0.12-0.15,0.29-0.32,0.49c-0.13,0.16-0.21,0.29-0.24,0.38c-0.04,0.16-0.07,0.26-0.08,0.28
		c-0.02,0.04-0.05,0.06-0.08,0.06l-0.02,0c-0.22,0-0.47-0.47-0.72-1.35c-0.07-0.25-0.17-0.36-0.3-0.36c-0.1,0-0.19,0.06-0.23,0.15
		l-0.08,0.19c-0.01,0.03-0.04,0.05-0.07,0.05c-0.1,0-0.27-0.2-0.37-0.44c-0.08-0.2-0.13-0.42-0.13-0.61c0-0.41,0.31-0.72,1.23-1.24
		c0.4-0.23,0.56-0.51,0.56-1.03c0-0.41-0.12-0.65-0.48-0.92c-0.28-0.21-0.44-0.29-0.59-0.29c-0.13,0-0.22,0.08-0.22,0.19
		c0,0.12,0.07,0.2,0.24,0.26c0.21,0.07,0.3,0.14,0.3,0.24c0,0.08-0.09,0.26-0.23,0.48c-0.15,0.23-0.22,0.3-0.43,0.44
		c-0.06,0.36-0.23,0.6-0.63,0.86c-0.08,0.23-0.12,0.31-0.27,0.49l-0.28,0.36c-0.09,0.11-0.18,0.32-0.2,0.41
		c-0.03,0.2-0.05,0.24-0.13,0.24c-0.1,0-0.32-0.19-0.54-0.46c-0.13-0.17-0.16-0.24-0.17-0.44c-0.14,0.11-0.18,0.12-0.45,0.16
		c-0.16,0.02-0.29,0.05-0.36,0.09c-0.2,0.11-0.27,0.14-0.31,0.14c-0.05,0-0.07-0.03-0.08-0.12l-0.02-0.3c0-0.4,0.16-0.87,0.4-1.18
		c-0.23-0.2-0.46-0.33-0.65-0.35c-0.08-0.01-0.1-0.02-0.1-0.05c0-0.05,0.05-0.15,0.13-0.24c0.1-0.13,0.18-0.22,0.24-0.27
		c0.19-0.16,0.51-0.28,0.77-0.28c0.17,0,0.42,0.06,0.75,0.19c0.12,0.04,0.23,0.07,0.32,0.07c0.14,0,0.23-0.09,0.23-0.26
		c0-0.24-0.12-0.62-0.38-1.23c-0.18-0.41-0.27-0.68-0.27-0.87c0-0.46,0.22-0.94,0.49-1.07c-0.12-0.06-0.18-0.08-0.3-0.08
		c-0.13,0-0.24,0.04-0.4,0.13c-0.2,0.11-0.31,0.21-0.31,0.28c0,0.02,0.04,0.07,0.11,0.11c0.1,0.07,0.12,0.1,0.12,0.2
		c0,0.32-0.27,0.77-0.65,1.05c-0.08,0.47-0.3,0.74-0.71,0.94c-0.06,0.26-0.09,0.33-0.29,0.61c-0.35,0.49-0.43,0.64-0.49,0.92
		c-0.03,0.14-0.06,0.2-0.11,0.2c-0.06,0-0.17-0.09-0.31-0.23c-0.08-0.08-0.15-0.16-0.21-0.25c-0.05-0.09-0.08-0.17-0.14-0.42
		c-0.09,0.03-0.12,0.04-0.19,0.04L11.18,43h-0.13c-0.29,0-0.6,0.06-0.75,0.16c-0.06,0.04-0.1,0.05-0.12,0.05
		c-0.08,0-0.15-0.18-0.15-0.4c0-0.48,0.13-0.87,0.44-1.3c-0.11-0.1-0.15-0.13-0.25-0.24c-0.03-0.04-0.07-0.07-0.11-0.09l-0.15-0.08
		C9.91,41.07,9.88,41.03,9.88,41c0-0.07,0.19-0.25,0.42-0.4c0.26-0.16,0.46-0.24,0.64-0.24c0.22,0,0.33,0.05,0.6,0.29
		c0.19,0.16,0.32,0.24,0.41,0.24c0.07,0,0.13-0.04,0.19-0.12c0.04-0.06,0.07-0.13,0.07-0.2c0-0.25-0.3-0.68-0.63-0.9
		c-0.25-0.16-0.53-0.25-0.79-0.25c-0.37,0-0.68,0.18-0.83,0.48l-0.14,0.31c-0.03,0.07-0.08,0.11-0.13,0.11
		c-0.08,0-0.13-0.04-0.43-0.39l-0.34-0.39c-0.11-0.12-0.18-0.24-0.21-0.35c-0.03-0.1-0.05-0.16-0.07-0.17
		c-0.01-0.02-0.05-0.05-0.13-0.11c-0.27-0.19-0.46-0.56-0.57-1.1c-0.01-0.06-0.03-0.11-0.04-0.17c-0.33-0.4-0.52-0.89-0.52-1.31
		c0-0.06,0.01-0.08,0.03-0.18C7.22,35.95,7.2,35.9,7.05,35.4c-0.11-0.36-0.18-0.52-0.31-0.69c-0.03-0.05-0.05-0.08-0.05-0.1
		c0-0.07,0.11-0.13,0.31-0.16c0.18-0.03,0.19-0.04,0.27-0.04l0.26,0.02l-0.01-0.36c0-0.21,0.01-0.35,0.07-0.61
		c0.02-0.12,0.04-0.22,0.04-0.28c0-0.02-0.01-0.1-0.02-0.23c-0.01-0.07-0.02-0.13-0.04-0.2c-0.02-0.04-0.03-0.07-0.03-0.11
		c0-0.04,0.03-0.06,0.08-0.06c0.04,0,0.09,0.02,0.17,0.06c0.23,0.11,0.42,0.23,0.57,0.34c0.46,0.36,0.82,0.91,0.82,1.25l-0.01,0.1
		c-0.01,0.12-0.02,0.19-0.02,0.2c0,0.06,0.03,0.13,0.09,0.21l0.14,0.2c0.13,0.18,0.22,0.38,0.22,0.52c0,0.12-0.03,0.18-0.24,0.49
		c-0.16,0.23-0.23,0.4-0.23,0.6c0,0.24,0.09,0.54,0.27,0.84c0.16,0.28,0.33,0.42,0.51,0.42c0.3,0,0.42-0.26,0.47-0.97
		c0.02-0.34,0.06-0.67,0.11-1.01l0.01-0.18c0-0.08-0.02-0.13-0.13-0.26l-0.39-0.46c-0.38-0.44-0.5-0.67-0.5-0.98
		c0-0.36,0.24-0.62,0.59-0.62l0.16,0.01v-0.1c0-0.08,0.02-0.2,0.06-0.36c0.08-0.29,0.19-0.5,0.25-0.5c0.01,0,0.06,0.02,0.13,0.06
		c0.02,0.01,0.1,0.05,0.24,0.09c0.07,0.03,0.13,0.05,0.27,0.13c0.06-0.23,0.11-0.33,0.21-0.46c0.17-0.22,0.36-0.4,0.43-0.4
		c0.04,0,0.12,0.06,0.22,0.16l0.25,0.27c0.04,0.04,0.09,0.13,0.15,0.25l0.05,0.12c0.05-0.03,0.11-0.06,0.16-0.09
		c0.1-0.06,0.17-0.1,0.21-0.12c0.16-0.08,0.24-0.12,0.25-0.12c0.07-0.05,0.12-0.07,0.14-0.07c0.04,0,0.07,0.08,0.17,0.52
		c0.07,0.3,0.08,0.36,0.09,0.58c0.42,0.06,0.63,0.3,0.63,0.76c0,0.43-0.21,0.85-0.67,1.33c-0.12,0.13-0.15,0.2-0.15,0.32
		c0,1.17,0.41,1.54,1.88,1.69c0.9,0.09,1.17,0.15,2.25,0.48c0.57,0.17,0.9,0.24,1.11,0.24c0.25,0,0.39-0.09,0.39-0.25
		c0-0.25-0.18-0.33-1.23-0.55c-2.45-0.52-3.42-1.35-3.42-2.97c0-1.15,0.86-2.02,2.01-2.02c0.51,0,0.96,0.15,1.68,0.57
		c0.66,0.39,0.8,0.45,0.96,0.45c0.18,0,0.25-0.11,0.25-0.4c0-0.19,0.06-0.27,0.17-0.27c0.11,0,0.27,0.11,0.41,0.27
		c0.22,0.26,0.31,0.39,0.31,0.75c0,0.48-0.26,0.79-0.76,0.93c-0.05,0.06-0.09,0.1-0.12,0.13c-0.27,0.3-0.51,0.41-0.95,0.41
		c-0.38,0-0.85-0.15-1.17-0.38l-0.64-0.45c-0.28-0.2-0.48-0.28-0.67-0.28c-0.27,0-0.43,0.16-0.43,0.43c0,0.27,0.18,0.48,0.46,0.58
		l0.6,0.18c0.21,0.07,0.31,0.11,0.57,0.24c0.1-0.02,0.2-0.03,0.29-0.03c0.39,0,0.78,0.1,1.12,0.28c0.11,0.05,0.19,0.09,0.24,0.1
		l0.33,0.09c0.75,0.21,1.36,1.05,1.36,1.88c0,0.93-0.61,1.52-1.59,1.52L18.4,39.33L18.4,39.33z M41.44,39.14
		c0.23,0.3,0.56,0.5,0.82,0.5c0.12-0.01,0.24-0.02,0.36-0.06c0.06-0.01,0.12-0.02,0.18-0.02c0.06,0,0.09,0.02,0.09,0.08
		c0,0.04-0.03,0.16-0.07,0.25c-0.03,0.08-0.06,0.16-0.08,0.24l-0.05,0.28l-0.13,0.24l-0.19,0.17l-0.05,0.05v0.18
		c0,0.32-0.1,0.51-0.36,0.68c-0.02,0.01-0.05,0.04-0.09,0.07l-0.02,0.1c-0.06,0.25-0.1,0.4-0.13,0.46c-0.03,0.07-0.12,0.2-0.25,0.37
		c-0.16,0.21-0.27,0.38-0.33,0.54c-0.05,0.13-0.09,0.17-0.18,0.17c-0.13,0-0.26-0.16-0.28-0.35c-0.03,0.04-0.05,0.07-0.06,0.08
		l-0.16,0.11l-0.26,0.17c-0.11,0.07-0.18,0.13-0.21,0.16l-0.14,0.15c-0.02,0.02-0.05,0.04-0.08,0.04c-0.06,0-0.13-0.11-0.2-0.33
		l-0.13-0.43c-0.03-0.12-0.05-0.26-0.05-0.43c0-0.22,0.01-0.3,0.09-0.47c-0.27,0.03-0.34,0.04-0.47,0.09
		c-0.04,0.01-0.08,0.02-0.12,0.02c-0.05,0-0.07-0.03-0.07-0.08c0-0.03,0.02-0.12,0.05-0.2l0.17-0.45c0.13-0.35,0.56-0.67,0.91-0.67
		c0.08,0,0.19,0.02,0.34,0.07c0.08,0.03,0.15,0.04,0.2,0.04c0.16,0,0.28-0.11,0.28-0.26c0-0.07-0.05-0.15-0.1-0.17
		c-0.02-0.01-0.18-0.06-0.48-0.15c-0.22-0.06-0.33-0.15-0.58-0.43c-0.18-0.21-0.26-0.27-0.32-0.27c-0.05,0-0.08,0.04-0.08,0.09
		l0.01,0.18l0,0.08c0,0.37-0.11,0.72-0.37,1.21l-0.37,0.68c-0.18,0.32-0.25,0.56-0.25,0.81c0,0.27,0.11,0.5,0.27,0.54l0.2,0.05
		c0.03,0.01,0.05,0.02,0.07,0.04c0.03,0.03,0.04,0.05,0.04,0.08c0,0.02-0.02,0.07-0.07,0.12c-0.02,0.03-0.1,0.13-0.24,0.3
		c-0.23,0.3-0.37,0.41-0.65,0.49c-0.16,0.39-0.42,0.62-0.89,0.77l-0.05,0.09c-0.16,0.27-0.51,0.53-0.73,0.53h-0.05
		c-0.03,0.25-0.2,0.5-0.46,0.68c-0.18,0.12-0.28,0.2-0.31,0.22c-0.02,0.04-0.05,0.08-0.06,0.12c-0.06,0.13-0.12,0.19-0.19,0.19
		c-0.14,0-0.26-0.13-0.34-0.38c-0.06,0.04-0.09,0.06-0.12,0.08c-0.15,0.11-0.24,0.16-0.25,0.17c-0.06,0.03-0.22,0.07-0.47,0.13
		c-0.32,0.08-0.6,0.22-0.67,0.33l-0.12,0.2l-0.06,0.02c-0.06,0-0.14-0.09-0.17-0.21c-0.07-0.28-0.12-0.56-0.12-0.74
		c0-0.47,0.16-0.78,0.63-1.26v-0.11c0-0.73,0.56-1.23,1.38-1.23l0.13,0l0.45,0.03h0.04c0.25,0,0.47-0.09,0.71-0.29
		c0.33-0.26,0.42-0.43,0.42-0.72c0-0.09-0.03-0.2-0.13-0.53c-0.06-0.22-0.1-0.42-0.1-0.63c0-0.55,0.4-1.23,0.95-1.6
		c0.14-0.1,0.25-0.23,0.25-0.3c0-0.03-0.01-0.05-0.03-0.05c-0.03,0-0.1,0.04-0.17,0.1c-0.06,0.06-0.17,0.12-0.32,0.2l-0.21,0.1
		l-0.24,0.09c-0.07,0.03-0.11,0.07-0.11,0.12c0,0.03,0.01,0.08,0.03,0.12c0.01,0.03,0.02,0.06,0.02,0.1c0,0.03-0.02,0.08-0.06,0.15
		l-0.18,0.3c-0.19,0.3-0.31,0.42-0.55,0.53c-0.15,0.44-0.36,0.66-0.67,0.7c-0.25,0.5-0.47,0.68-0.92,0.73
		c-0.06,0.19-0.17,0.35-0.4,0.61c-0.09,0.1-0.15,0.17-0.17,0.21c-0.1,0.19-0.11,0.2-0.16,0.2c-0.06,0-0.2-0.09-0.3-0.2
		c-0.05-0.05-0.08-0.1-0.12-0.16l-0.12-0.21c-0.04-0.06-0.08-0.1-0.13-0.1l-0.08,0l-0.29,0.04c-0.18,0.02-0.44,0.17-0.53,0.31
		l-0.16,0.24c-0.01,0.02-0.04,0.04-0.06,0.04c-0.12,0-0.19-0.26-0.19-0.69c0-0.38,0.06-0.64,0.19-0.82l0.37-0.51
		c0.05-0.07,0.08-0.15,0.08-0.2c0-0.06-0.03-0.12-0.07-0.17c-0.07-0.09-0.15-0.15-0.21-0.16l-0.28-0.04
		c-0.05-0.01-0.07-0.02-0.07-0.04c0.01-0.03,0.02-0.06,0.04-0.09c0.09-0.12,0.21-0.22,0.33-0.29c0.33-0.2,0.54-0.28,0.76-0.28
		c0.22,0,0.47,0.08,0.69,0.23l0.38,0.25c0.05,0.04,0.12,0.05,0.18,0.05c0.18,0,0.31-0.1,0.44-0.35c0.12-0.23,0.18-0.42,0.18-0.61
		c0-0.5-0.36-0.86-0.85-0.86c-0.23,0-0.46,0.09-0.69,0.27c-0.07,0.05-0.11,0.1-0.13,0.15l-0.1,0.23c-0.02,0.06-0.06,0.09-0.1,0.09
		c-0.06,0-0.22-0.19-0.34-0.44c-0.07-0.13-0.13-0.29-0.19-0.48c-0.08-0.26-0.11-0.45-0.11-0.66l0.02-0.36
		c-0.18-0.28-0.24-0.49-0.24-0.82c0-0.12,0.02-0.22,0.09-0.47c-0.11-0.18-0.15-0.32-0.15-0.59l0.01-0.16l0.04-0.19l0.03-0.16
		c-0.13-0.17-0.16-0.28-0.29-0.86c-0.07-0.33-0.11-0.47-0.17-0.56c-0.02-0.04-0.04-0.06-0.04-0.08c0-0.08,0.19-0.15,0.39-0.15
		l0.19,0.01c-0.05-0.12-0.06-0.17-0.06-0.27c0-0.18,0.04-0.36,0.1-0.53c0.07-0.2,0.08-0.26,0.08-0.33c0-0.16-0.02-0.32-0.06-0.4
		l-0.11-0.27c-0.02-0.06-0.03-0.1-0.03-0.14c0-0.02,0.02-0.04,0.07-0.04c0.26,0,0.75,0.28,1.15,0.65c0.38,0.36,0.51,0.66,0.51,1.21
		l-0.03,0.29c0.36,0.32,0.52,0.58,0.52,0.86c0,0.21-0.07,0.34-0.27,0.54c-0.36,0.35-0.44,0.54-0.44,0.99c0,0.7,0.21,1.08,0.6,1.08
		c0.34,0,0.61-0.37,0.65-0.92l0.04-0.5c0.01-0.16,0.03-0.32,0.06-0.48c0.02-0.11,0.03-0.23,0.04-0.34c0-0.18-0.11-0.4-0.46-0.81
		c-0.37-0.43-0.5-0.67-0.5-1.01c0-0.4,0.28-0.7,0.66-0.7c0.09,0,0.14,0.01,0.26,0.07c0.01-0.23,0.01-0.28,0.15-0.6
		c0.1-0.26,0.21-0.44,0.26-0.44c0.02,0,0.05,0.02,0.08,0.05c0.06,0.05,0.11,0.1,0.18,0.14c0.08,0.06,0.12,0.09,0.13,0.09
		c0.05,0.04,0.09,0.08,0.12,0.12c0.08-0.3,0.17-0.44,0.41-0.68c0.19-0.18,0.26-0.24,0.29-0.24c0.03,0,0.06,0.03,0.09,0.06l0.16,0.21
		l0.22,0.25c0.09,0.1,0.12,0.18,0.16,0.41l0.13-0.08l0.21-0.12c0.06-0.03,0.11-0.07,0.16-0.1c0.03-0.03,0.06-0.04,0.08-0.04
		c0.02,0,0.04,0.04,0.06,0.09l0.08,0.31l0.17,0.34c0.05,0.1,0.07,0.18,0.07,0.34v0.08l0.09,0c0.26,0,0.48,0.31,0.48,0.66
		c0,0.47-0.37,1.08-0.86,1.4c-0.05,0.16-0.06,0.23-0.06,0.35c0,1.05,0.28,1.28,1.9,1.52c0.4,0.06,0.76,0.13,1.08,0.22
		c0.05,0.01,0.4,0.13,1.05,0.35c0.35,0.12,0.6,0.17,0.78,0.17c0.2,0,0.31-0.05,0.31-0.16c0-0.18-0.27-0.35-1.08-0.67l-1.15-0.45
		c-1.17-0.46-1.72-1.17-1.72-2.22c0-1.23,0.92-2.15,2.15-2.15c0.46,0,0.92,0.09,1.57,0.33c0.84,0.3,0.88,0.31,0.97,0.31
		c0.16,0,0.25-0.11,0.28-0.34c0.02-0.2,0.07-0.28,0.18-0.28c0.16,0,0.34,0.15,0.47,0.39c0.11,0.22,0.17,0.47,0.17,0.69
		c0,0.44-0.23,0.72-0.65,0.81C43.44,34.82,43.09,35,42.66,35c-0.53,0-0.79-0.1-1.69-0.66c-0.32-0.2-0.46-0.25-0.7-0.25
		c-0.31,0-0.55,0.2-0.55,0.46c0,0.24,0.2,0.4,0.64,0.52c0.27,0.07,0.3,0.09,0.44,0.23c0.11-0.03,0.15-0.04,0.22-0.04
		c0.43,0,0.96,0.23,1.41,0.62c0.82,0.26,1.54,1.13,1.54,1.87c0,0.82-0.7,1.55-1.5,1.55C42.26,39.29,41.83,39.22,41.44,39.14
		L41.44,39.14L41.44,39.14z"/>
	<path style="fill:#FDDC02;" d="M19.46,20.13c-0.03-0.16-0.05-0.24-0.05-0.32l0.01-0.1l0.04-0.21l0.01-0.17
		c0-0.19-0.03-0.32-0.09-0.4l-0.16-0.21c-0.06-0.08-0.1-0.17-0.13-0.26c-0.01-0.03-0.02-0.07-0.02-0.11c0-0.06,0.03-0.1,0.09-0.1
		c0.03,0,0.05,0,0.17,0.08c0.05,0.03,0.1,0.04,0.13,0.04c0.08,0,0.12-0.13,0.12-0.35c0-0.25-0.02-0.4-0.08-0.46l-0.2-0.23
		l-0.17-0.15c-0.04-0.04-0.07-0.08-0.07-0.11c0-0.06,0.04-0.1,0.11-0.1c0.06,0,0.18,0.03,0.29,0.07l0.06,0.01
		c0.05,0,0.07-0.04,0.07-0.11l-0.01-0.05l-0.04-0.28l-0.08-0.29c-0.02-0.09-0.04-0.11-0.1-0.11l-0.03,0l-0.33,0.06l-0.05,0
		c-0.43,0-0.89-0.36-1.03-0.83l-0.27-0.86c-0.08-0.27-0.28-0.52-0.64-0.81c-0.11-0.08-0.2-0.14-0.26-0.14l-0.24-0.03
		c-0.04,0-0.07-0.03-0.07-0.06c0-0.05,0.05-0.08,0.17-0.08l0.44,0.04c0.16,0.01,0.4,0.08,0.72,0.19c0.39,0.13,0.66,0.19,0.89,0.19
		c0.67,0,1.06-0.36,1.06-0.96c0-0.41-0.21-0.88-0.54-1.17c-0.19-0.17-0.37-0.3-0.44-0.3c-0.03,0-0.06,0.04-0.06,0.07l0.01,0.17v0.01
		c0,0.07-0.04,0.12-0.09,0.12c-0.06,0-0.14-0.09-0.23-0.27c-0.25-0.52-0.65-0.83-1.06-0.83c-0.07,0-0.12,0.03-0.12,0.07
		c0,0.03,0.02,0.09,0.07,0.19l0.1,0.24c0.03,0.06,0.04,0.1,0.04,0.12c0,0.01-0.02,0.03-0.05,0.03c-0.06,0-0.16-0.05-0.23-0.12
		l-0.2-0.22l-0.17-0.27c-0.14-0.21-0.25-0.31-0.55-0.46c-0.11-0.05-0.21-0.11-0.31-0.17c-0.05-0.03-0.11-0.05-0.17-0.05
		c-0.04,0-0.07,0.03-0.07,0.07c0,0.04,0.02,0.09,0.05,0.14c0.1,0.15,0.14,0.23,0.14,0.26c0,0.04-0.03,0.08-0.07,0.08
		c-0.1,0-0.31-0.21-0.51-0.49c-0.15-0.23-0.24-0.49-0.24-0.74c0-0.57,0.41-0.99,0.98-0.99c0.29,0,0.66,0.12,1,0.33l0.62,0.38
		c0.22,0.13,0.54,0.24,0.72,0.24c0.08,0,0.26-0.03,0.39-0.06c0.06-0.01,0.11-0.04,0.16-0.07c0.03-0.02,0.06-0.05,0.06-0.07
		c0-0.03-0.01-0.05-0.03-0.05l-0.08-0.03l-0.29-0.05c-0.08-0.01-0.2-0.05-0.36-0.13c-0.35-0.16-0.57-0.27-0.66-0.33
		c-0.22-0.14-0.36-0.23-0.44-0.25c-0.11-0.04-0.18-0.08-0.18-0.12c0-0.04,0.02-0.06,0.06-0.06c0.05,0,0.1,0.02,0.14,0.05
		c0.19,0.12,0.36,0.19,0.49,0.19l0.57,0.2c0.29,0.1,0.69,0.19,0.88,0.19c0.24,0,0.44-0.2,0.44-0.44c0-0.16-0.09-0.39-0.23-0.58
		c-0.03-0.05-0.06-0.07-0.09-0.07c-0.05,0-0.08,0.04-0.08,0.11l0.01,0.1l0.02,0.16c0,0.17-0.12,0.31-0.27,0.31
		c-0.07,0-0.14-0.02-0.21-0.04l-0.86-0.28c-0.72-0.23-1.05-0.3-1.41-0.3c-1.03,0-1.82,0.71-1.82,1.64c0,1.05,0.74,1.73,2.57,2.36
		c1.8,0.62,2.05,0.77,2.05,1.24c0,0.27-0.27,0.5-0.57,0.5c-0.11,0-0.21-0.01-0.32-0.03c-0.06-0.01-0.36-0.08-0.9-0.21
		c-0.55-0.13-1.04-0.19-1.65-0.19c-1.3,0-2.02,0.23-2.64,0.83c-0.16,0.15-0.21,0.18-0.39,0.18l-0.09,0l-0.18-0.01l-0.03,0
		c-0.15,0-0.27,0.07-0.37,0.24c-0.14,0.23-0.22,0.34-0.23,0.36c-0.04,0.05-0.09,0.08-0.15,0.08c-0.12,0-0.19-0.09-0.33-0.41
		c-0.06-0.15-0.15-0.29-0.27-0.39l-0.27-0.24c-0.05-0.04-0.07-0.07-0.07-0.1c0-0.03,0.02-0.07,0.05-0.12
		c0.13-0.19,0.17-0.27,0.19-0.35c0.03-0.17,0.04-0.18,0.11-0.18c0.08,0,0.1,0.08,0.11,0.38c0,0.09,0.03,0.21,0.1,0.36l0.15,0.32
		c0.01,0.04,0.06,0.07,0.12,0.07c0.14,0,0.31-0.33,0.36-0.66c0.03-0.29,0.06-0.37,0.12-0.37c0.02,0,0.05,0.01,0.06,0.02
		c0.01,0.02,0.05,0.1,0.12,0.24c0.04,0.08,0.1,0.15,0.17,0.2c0.08,0.06,0.13,0.09,0.16,0.09h0.01c0.11,0,0.14-0.07,0.17-0.32
		l0.01-0.13l-0.03-0.18l-0.01-0.13c0-0.09,0.03-0.14,0.08-0.14c0.03,0,0.07,0.02,0.1,0.05l0.13,0.13c0.09,0.08,0.18,0.13,0.26,0.13
		c0.11,0,0.18-0.05,0.18-0.11c0-0.06-0.02-0.13-0.12-0.31l-0.09-0.17c-0.11-0.2-0.19-0.28-0.29-0.28l-0.14,0.01l-0.16,0.06
		c-0.03,0.02-0.07,0.03-0.1,0.03c-0.02,0-0.04-0.03-0.04-0.05c0-0.12,0.08-0.31,0.23-0.54c0.11-0.17,0.18-0.53,0.21-1.04
		C13,9.9,13.09,9.45,13.19,9.45c0.06,0,0.09,0.05,0.09,0.2l-0.01,0.18l0,0.13c0,0.12,0.02,0.22,0.06,0.22
		c0.11,0,0.25-0.17,0.35-0.44c0.04-0.11,0.07-0.21,0.07-0.27l-0.01-0.06l-0.27-0.49l-0.27-0.08c-0.04-0.01-0.08-0.04-0.09-0.06V8.46
		L13.09,8.3l-0.05-0.13l-0.06-0.14c-0.29,0.16-0.43,0.26-0.53,0.39c-0.11,0.14-0.17,0.19-0.22,0.19c-0.03,0-0.06-0.03-0.06-0.07
		c0-0.04,0.01-0.1,0.04-0.22l0.01-0.07c0-0.29-0.17-0.57-0.46-0.74l-0.08,0.1l-0.09,0.13l-0.16,0.19c-0.05,0.06-0.09,0.15-0.13,0.27
		c-0.01,0.05-0.02,0.1-0.03,0.15v0.07c0,0.11-0.01,0.14-0.06,0.14l-0.03-0.01l-0.09-0.13l-0.14-0.16L10.7,8.1l-0.12-0.09
		c-0.03,0.05-0.05,0.09-0.05,0.12c-0.04,0.09-0.06,0.16-0.06,0.21l-0.01,0.21l-0.01,0.23v0.04c0,0.11-0.03,0.16-0.09,0.16
		c-0.03,0-0.09-0.03-0.16-0.07C10.13,8.88,10.07,8.86,10,8.86C9.79,8.86,9.66,9,9.66,9.22c0,0.27,0.07,0.52,0.21,0.69l0.17,0.23
		c0.05,0.06,0.14,0.11,0.14,0.08l0.03-0.28l-0.04-0.23l-0.01-0.1c0-0.08,0.03-0.14,0.08-0.14c0.07,0,0.12,0.08,0.17,0.31l0.1,0.49
		l0.11,0.62c0.03,0.18,0.08,0.36,0.16,0.53c0.1,0.25,0.18,0.4,0.23,0.46c0.14,0.19,0.16,0.22,0.16,0.26c0,0.04-0.02,0.07-0.05,0.07
		c-0.04,0-0.09-0.02-0.12-0.05c-0.05-0.02-0.1-0.04-0.16-0.05l-0.1-0.01c-0.21,0-0.26,0.18-0.26,1.06c0,0.54,0.11,1.27,0.25,1.62
		l0.28,0.7c0.04,0.11,0.06,0.22,0.06,0.33c0,0.97-1.28,2.48-2.69,3.18c-0.52,0.26-0.69,0.51-0.73,1.08l-0.01,0.17
		c0.22-0.11,0.31-0.14,0.45-0.18c0.39-0.1,0.47-0.15,0.53-0.34l0.05-0.17c0.02-0.06,0.05-0.09,0.36-0.25
		c0.1-0.06,0.18-0.12,0.21-0.17c0.07-0.11,0.12-0.17,0.16-0.17c0.03,0,0.05,0.01,0.05,0.04l-0.01,0.05l-0.13,0.37L9.3,19.53
		c0,0.28,0.16,0.51,0.44,0.65c0.05-0.3,0.08-0.41,0.18-0.56l0.24-0.37c0.09-0.14,0.13-0.31,0.13-0.57c0-0.14-0.01-0.28-0.03-0.41
		l-0.01-0.11c0-0.06,0.03-0.1,0.09-0.1c0.04,0,0.08,0.01,0.09,0.04l0.05,0.25c0.01,0.05,0.06,0.09,0.13,0.09
		c0.13,0,0.29-0.17,0.47-0.46c0.06-0.11,0.1-0.23,0.1-0.35l-0.02-0.18l-0.04-0.2l-0.01-0.04c0-0.09,0.05-0.15,0.12-0.15
		c0.03,0,0.05,0.01,0.06,0.02l0.08,0.31c0.03,0.1,0.1,0.17,0.17,0.17c0.09,0,0.24-0.15,0.33-0.33c0.08-0.16,0.12-0.33,0.12-0.54
		c0-0.29,0.03-0.36,0.13-0.36c0.03,0,0.06,0.01,0.07,0.03l0.05,0.17c0.02,0.06,0.06,0.11,0.1,0.11c0.05,0,0.2-0.16,0.3-0.33
		c0.03-0.04,0.04-0.08,0.04-0.12c0-0.06-0.03-0.11-0.12-0.18c-0.14-0.12-0.15-0.13-0.15-0.31c0-0.17,0.03-0.26,0.15-0.46
		c0.06-0.11,0.12-0.22,0.17-0.32c0.17-0.33,0.23-0.41,0.29-0.41c0.05,0,0.09,0.05,0.09,0.11c0,0.04-0.01,0.07-0.02,0.11
		c-0.04,0.08-0.05,0.13-0.05,0.16c0,0.05,0.04,0.1,0.1,0.1c0.06,0,0.14-0.03,0.23-0.08c0.03-0.02,0.16-0.07,0.37-0.15l0.44-0.16
		c0.07-0.03,0.16-0.04,0.27-0.04c0.08,0,0.16,0,0.24,0.03c0.16,0.04,0.26,0.05,0.31,0.05c0.12,0,0.22-0.1,0.23-0.22
		c0-0.09-0.09-0.26-0.21-0.4c-0.04-0.05-0.07-0.09-0.07-0.12l0.01-0.05c0.02-0.03,0.05-0.05,0.07-0.05c0.09,0,0.3,0.23,0.48,0.52
		c1.14,1.8,1.55,2.24,2.32,2.47c0.78,0.24,0.98,0.42,0.98,0.88c0,0.25-0.13,0.55-0.41,0.95c-0.58,0.81-0.72,1.13-0.72,1.66v0.1
		c0.05-0.02,0.1-0.04,0.15-0.07c0.11-0.05,0.18-0.08,0.21-0.09l0.33-0.07c0.1-0.02,0.19-0.15,0.19-0.27v-0.04l-0.04-0.29l-0.01-0.04
		c0-0.1,0.05-0.22,0.12-0.27c0.02-0.02,0.04-0.03,0.07-0.03c0.04,0,0.08,0.04,0.1,0.08L19,19.73C19.08,19.91,19.18,20,19.46,20.13
		L19.46,20.13L19.46,20.13z M8.78,10.53c-0.09,0-0.14,0.08-0.15,0.27L8.6,11.04c-0.03,0.24-0.03,0.26-0.03,0.32
		c0,0.19,0.05,0.33,0.13,0.33c0.08,0,0.22-0.16,0.28-0.34c0.04-0.1,0.06-0.2,0.06-0.31c0-0.1-0.02-0.2-0.06-0.3
		C8.94,10.61,8.86,10.53,8.78,10.53L8.78,10.53z"/>
	<path style="fill:#FDDC02;" d="M7.56,8.46l0.01,0.12c0,0.16-0.04,0.36-0.18,0.87C7.37,9.52,7.36,9.6,7.35,9.68
		c0,0.09,0.03,0.19,0.11,0.31c0.04,0.07,0.08,0.11,0.12,0.13l0.16,0.08l0.03,0.19c-0.01,0.07,0.01,0.17,0.04,0.29
		c0.04,0.13,0.05,0.26,0.05,0.39c0,0.11-0.01,0.16-0.03,0.16c-0.05,0-0.14-0.14-0.22-0.34c-0.13-0.32-0.24-0.44-0.42-0.44
		c-0.15,0-0.24,0.02-0.41,0.1c0.04,0.05,0.07,0.09,0.08,0.11c0.01,0.01,0.05,0.09,0.12,0.23l0.19,0.35c0.13,0.25,0.2,0.39,0.23,0.42
		c0.05,0.08,0.11,0.14,0.18,0.19c0.02,0.01,0.1,0.05,0.21,0.12c0.06,0.04,0.11,0.09,0.11,0.12c0,0.06-0.04,0.1-0.11,0.1H7.77
		l-0.17-0.03l-0.1-0.01c-0.05,0-0.07,0.05-0.07,0.15c0,0.36,0.29,0.77,0.78,1.14c0.06,0.05,0.11,0.11,0.11,0.14
		c0,0.05-0.04,0.08-0.1,0.08c-0.03,0-0.11-0.02-0.17-0.06c-0.03-0.02-0.06-0.03-0.09-0.03c-0.06,0-0.11,0.05-0.11,0.14
		c0,0.09,0.08,0.28,0.24,0.59c0.11,0.21,0.27,0.36,0.45,0.44L9.13,15c0.03,0.01,0.05,0.04,0.05,0.08c0,0.05-0.04,0.09-0.08,0.09
		l-0.12,0.01l-0.1,0.01l-0.17-0.01H8.68c-0.08,0-0.11,0.01-0.11,0.06c0,0.06,0.07,0.23,0.2,0.43c0.14,0.24,0.26,0.37,0.34,0.37
		c0.03,0,0.06-0.02,0.08-0.07l0.14-0.31c0.02-0.05,0.14-0.14,0.35-0.26c0.13-0.08,0.25-0.13,0.37-0.15l0.24-0.04
		c0.06-0.01,0.09-0.05,0.09-0.13v-0.03l-0.04-0.25l-0.03-0.28L10.25,14c0-0.07-0.02-0.11-0.06-0.11c-0.03,0-0.08,0.04-0.12,0.09
		c-0.21,0.32-0.35,0.42-0.58,0.42c-0.7,0-1.24-1.24-1.24-2.89c0-0.14,0.01-0.33,0.03-0.54c0.03-0.42,0.04-0.53,0.04-0.68
		c0-0.71-0.15-1.22-0.45-1.52L7.68,8.6L7.56,8.46L7.56,8.46L7.56,8.46z M9.27,18.14C9.09,18.12,9,18.09,8.89,18.05
		c-0.03-0.01-0.11-0.05-0.25-0.1c-0.21-0.09-0.37-0.13-0.51-0.13c-0.2,0-0.36,0.06-0.55,0.22l0.12,0.09l0.27,0.19l0.25,0.2
		c0.06,0.05,0.14,0.08,0.22,0.08C8.69,18.59,8.92,18.47,9.27,18.14L9.27,18.14z M14.37,20.56c0.07-0.17,0.11-0.21,0.27-0.34
		c0.37-0.32,0.54-0.56,0.54-0.74v-0.29c0-0.17,0.03-0.23,0.12-0.23c0.04,0,0.07,0.01,0.08,0.04l0.06,0.16
		c0.01,0.04,0.06,0.06,0.11,0.06c0.05,0,0.12-0.06,0.19-0.16l0.13-0.18c0.06-0.09,0.09-0.17,0.09-0.26c0-0.05-0.01-0.1-0.03-0.15
		c-0.01-0.02-0.04-0.09-0.09-0.21c-0.03-0.06-0.05-0.13-0.05-0.21c0-0.08,0.04-0.14,0.12-0.14c0.04,0,0.07,0.01,0.09,0.05l0.1,0.13
		c0.02,0.03,0.06,0.05,0.1,0.05c0.04,0,0.1-0.05,0.14-0.11l0.1-0.21c0.03-0.05,0.05-0.09,0.05-0.12c0-0.05-0.05-0.08-0.12-0.12
		l-0.17-0.08c-0.23-0.1-0.4-0.47-0.4-0.85c0-0.05,0.01-0.1,0.03-0.14l0.09-0.23c0.02-0.07,0.04-0.14,0.04-0.21
		c0-0.14-0.04-0.28-0.13-0.41c-0.11-0.16-0.17-0.26-0.17-0.28c-0.08-0.21-0.12-0.27-0.18-0.27l-0.07,0.01l-0.09,0.05l-0.15,0.08
		l-0.17,0.21l-0.18,0.09c-0.11,0.06-0.22,0.3-0.22,0.49c0,0.34,0.04,0.44,0.49,1.23c0.18,0.3,0.27,0.56,0.27,0.75
		c0,0.55-0.49,0.93-1.46,1.17l-0.61,0.14c-0.45,0.11-0.71,0.42-0.81,0.94c0.19-0.09,0.26-0.11,0.59-0.11l0.2,0h0.03
		c0.18,0,0.2-0.01,0.32-0.17c0.13-0.18,0.26-0.3,0.44-0.37l0.21-0.09l0.17-0.09l0.05-0.01c0.05,0,0.07,0.02,0.07,0.05
		c0,0.05-0.05,0.14-0.12,0.23c-0.15,0.17-0.21,0.31-0.21,0.51C14.23,20.33,14.26,20.41,14.37,20.56L14.37,20.56L14.37,20.56z"/>
	<path style="fill:#FDDC02;" d="M12.7,18.5c0.15,0.1,0.29,0.22,0.4,0.36c0.13,0.17,0.14,0.19,0.27,0.19c0.06,0,0.13-0.01,0.19-0.03
		l0.12-0.03c0.22-0.04,0.29-0.07,0.29-0.13c0-0.03-0.02-0.07-0.07-0.11l-0.15-0.13l-0.14-0.13c-0.09-0.09-0.28-0.15-0.44-0.15
		C13.02,18.34,12.93,18.37,12.7,18.5L12.7,18.5L12.7,18.5z M17,19.22l0.08-0.01l0.12-0.01l0.12,0.01l0.06,0
		c0.3,0,0.58-0.25,0.58-0.51c0-0.09-0.09-0.14-0.24-0.14C17.36,18.55,17.14,18.76,17,19.22L17,19.22L17,19.22z M44.17,20.13
		c-0.03-0.12-0.04-0.18-0.04-0.24l0.01-0.18c0.03-0.25,0.05-0.36,0.05-0.51c0-0.1-0.03-0.18-0.1-0.27l-0.16-0.21
		c-0.1-0.14-0.15-0.25-0.15-0.36c0-0.07,0.02-0.1,0.07-0.1l0.06,0.01c0.01,0,0.04,0.02,0.12,0.07c0.05,0.03,0.1,0.04,0.13,0.04
		c0.08,0,0.12-0.12,0.12-0.37c0-0.34-0.06-0.51-0.27-0.66l-0.18-0.15c-0.03-0.03-0.05-0.07-0.05-0.11c0-0.06,0.04-0.1,0.1-0.1
		c0.03,0,0.09,0.01,0.15,0.03l0.15,0.04l0.05,0.01c0.04,0,0.07-0.04,0.07-0.11L44.3,16.9l-0.04-0.28c-0.04-0.29-0.09-0.4-0.17-0.4
		l-0.02,0l-0.34,0.06l-0.06,0c-0.41,0-0.9-0.39-1.03-0.83l-0.25-0.86c-0.07-0.26-0.3-0.54-0.63-0.81c-0.11-0.08-0.21-0.13-0.28-0.14
		l-0.24-0.03c-0.04,0-0.07-0.03-0.07-0.06c0-0.05,0.05-0.08,0.15-0.08c0.33,0,0.69,0.07,1.17,0.23c0.43,0.14,0.67,0.19,0.89,0.19
		c0.66,0,1.06-0.34,1.06-0.92c0-0.29-0.1-0.65-0.25-0.88c-0.13-0.2-0.34-0.4-0.62-0.58c-0.04-0.03-0.08-0.04-0.11-0.04
		c-0.03,0-0.06,0.04-0.06,0.07l0.01,0.17l0,0.01c0,0.06-0.04,0.12-0.09,0.12c-0.07,0-0.15-0.08-0.23-0.26
		c-0.25-0.52-0.64-0.83-1.04-0.83c-0.09,0-0.14,0.03-0.14,0.08c0,0.04,0.03,0.1,0.07,0.18c0.04,0.06,0.08,0.14,0.12,0.24
		c0.02,0.05,0.03,0.09,0.03,0.11c0,0.03-0.03,0.04-0.06,0.04c-0.06,0-0.16-0.05-0.22-0.12c-0.13-0.14-0.2-0.21-0.2-0.22l-0.17-0.27
		c-0.13-0.2-0.28-0.33-0.53-0.46l-0.33-0.17c-0.07-0.04-0.13-0.05-0.17-0.05c-0.04,0-0.06,0.03-0.06,0.06
		c0,0.04,0.02,0.09,0.06,0.15c0.07,0.1,0.12,0.22,0.12,0.26c0,0.04-0.03,0.08-0.07,0.08c-0.09,0-0.26-0.17-0.49-0.49
		c-0.17-0.23-0.25-0.48-0.25-0.74c0-0.56,0.43-0.99,0.98-0.99c0.29,0,0.64,0.12,0.99,0.33l0.64,0.38c0.23,0.14,0.54,0.24,0.72,0.24
		c0.11,0,0.14,0,0.37-0.06c0.07-0.02,0.13-0.04,0.17-0.07c0.03-0.01,0.05-0.04,0.05-0.07c0-0.05-0.03-0.08-0.11-0.08
		c-0.29-0.02-0.91-0.26-1.31-0.52c-0.23-0.15-0.38-0.23-0.43-0.25c-0.11-0.04-0.18-0.09-0.18-0.14c0-0.01,0.02-0.03,0.05-0.03
		l0.08,0.01l0.58,0.21l0.56,0.2c0.27,0.1,0.7,0.19,0.89,0.19c0.25,0,0.42-0.17,0.42-0.42c0-0.13-0.03-0.27-0.08-0.37
		c-0.08-0.16-0.19-0.3-0.23-0.3c-0.05,0-0.08,0.05-0.08,0.14l0.01,0.07l0.02,0.17c0,0.18-0.1,0.29-0.25,0.29
		c-0.07,0-0.15-0.02-0.22-0.04L42.5,8.05c-0.75-0.24-1.04-0.31-1.4-0.31c-1.04,0-1.83,0.7-1.83,1.64c0,1.05,0.72,1.72,2.58,2.36
		c1.81,0.63,2.04,0.77,2.04,1.25c0,0.28-0.26,0.49-0.58,0.49c-0.1,0-0.21-0.01-0.31-0.03c-0.07-0.02-0.37-0.09-0.9-0.21
		c-0.56-0.14-1.02-0.19-1.65-0.19c-1.32,0-1.95,0.2-2.63,0.83c-0.16,0.15-0.22,0.18-0.4,0.18l-0.09,0l-0.21-0.01
		c-0.16,0-0.28,0.08-0.37,0.24l-0.21,0.36c-0.03,0.05-0.09,0.08-0.15,0.08c-0.14,0-0.21-0.09-0.34-0.41
		c-0.07-0.17-0.16-0.3-0.27-0.39l-0.28-0.24c-0.04-0.04-0.07-0.07-0.07-0.1c0-0.03,0.02-0.07,0.07-0.12
		c0.04-0.06,0.08-0.12,0.12-0.19c0.04-0.07,0.06-0.13,0.06-0.16l0.01-0.12c0.01-0.04,0.05-0.06,0.09-0.06c0.09,0,0.1,0.06,0.11,0.38
		c0,0.08,0.03,0.21,0.1,0.36l0.15,0.32c0.01,0.04,0.06,0.07,0.12,0.07c0.14,0,0.31-0.33,0.36-0.67c0.03-0.28,0.06-0.37,0.12-0.37
		c0.05,0,0.08,0.03,0.19,0.27c0.04,0.08,0.09,0.14,0.16,0.2c0.06,0.06,0.12,0.09,0.16,0.09h0.01c0.11,0,0.15-0.07,0.17-0.32
		l0.01-0.13l-0.02-0.18l-0.02-0.13c0-0.09,0.03-0.14,0.08-0.14c0.03,0,0.06,0.02,0.1,0.05l0.13,0.13c0.09,0.08,0.18,0.13,0.27,0.13
		c0.11,0,0.18-0.05,0.18-0.13c0-0.07-0.01-0.1-0.13-0.3c-0.01-0.01-0.04-0.07-0.09-0.17c-0.11-0.22-0.17-0.28-0.27-0.28l-0.14,0.01
		l-0.17,0.06c-0.03,0.02-0.07,0.02-0.1,0.03c-0.02,0-0.04-0.03-0.04-0.05c0-0.12,0.08-0.31,0.23-0.54c0.09-0.14,0.17-0.5,0.23-1.04
		l0.06-0.62c0.05-0.38,0.08-0.52,0.16-0.52c0.03,0,0.05,0.01,0.05,0.03L38,9.68v0.16c0,0.19,0.02,0.35,0.04,0.35
		c0.05,0,0.14-0.06,0.22-0.18c0.06-0.08,0.1-0.17,0.13-0.27c0.04-0.14,0.07-0.26,0.07-0.35c0-0.3-0.13-0.44-0.55-0.56
		c-0.04-0.01-0.07-0.03-0.08-0.04l-0.01-0.12V8.46L37.8,8.3l-0.05-0.13l-0.06-0.14l-0.1,0.06c-0.27,0.17-0.34,0.22-0.43,0.33
		c-0.12,0.15-0.16,0.19-0.21,0.19c-0.03,0-0.06-0.02-0.06-0.06l0.05-0.23V8.29c0-0.29-0.16-0.57-0.45-0.78l-0.09,0.1l-0.09,0.13
		l-0.16,0.19c-0.09,0.11-0.15,0.25-0.15,0.39l0.01,0.05v0.04c0,0.11-0.01,0.14-0.06,0.14L35.9,8.53l-0.11-0.13l-0.13-0.16L35.42,8.1
		L35.3,8.01c-0.13,0.27-0.13,0.31-0.13,0.66v0.11c0,0.12-0.04,0.19-0.1,0.19c-0.03,0-0.09-0.02-0.16-0.06
		c-0.06-0.04-0.13-0.05-0.2-0.05c-0.19,0-0.33,0.16-0.33,0.39c0,0.24,0.05,0.41,0.22,0.67c0.1,0.17,0.24,0.31,0.3,0.31
		c0.01,0,0.02-0.12,0.04-0.29l-0.04-0.23l-0.01-0.1c0-0.08,0.03-0.14,0.08-0.14c0.07,0,0.12,0.08,0.17,0.3l0.1,0.49l0.11,0.62
		c0.03,0.18,0.09,0.36,0.16,0.53c0.1,0.25,0.18,0.4,0.23,0.46c0.15,0.19,0.16,0.22,0.16,0.26c0,0.04-0.02,0.06-0.06,0.06
		c-0.04-0.01-0.08-0.02-0.12-0.05c-0.05-0.02-0.1-0.04-0.16-0.05l-0.1-0.01c-0.22,0-0.26,0.18-0.26,1.05c0,0.55,0.11,1.28,0.25,1.64
		l0.28,0.7c0.04,0.1,0.06,0.22,0.06,0.33c0,0.97-1.31,2.52-2.69,3.18c-0.54,0.26-0.69,0.53-0.74,1.26c0.23-0.11,0.33-0.14,0.47-0.18
		c0.39-0.11,0.47-0.17,0.53-0.34l0.05-0.17c0.03-0.07,0.07-0.11,0.35-0.25c0.1-0.05,0.17-0.11,0.21-0.17
		c0.07-0.11,0.12-0.17,0.16-0.17c0.04,0,0.06,0.02,0.06,0.07l-0.01,0.02l-0.15,0.37l-0.01,0.09c0,0.28,0.16,0.51,0.44,0.65
		l0.04-0.16c0.04-0.2,0.09-0.33,0.13-0.4l0.26-0.37c0.09-0.13,0.11-0.22,0.11-0.57l-0.02-0.41l-0.01-0.11c0-0.07,0.03-0.1,0.09-0.1
		c0.04,0,0.08,0.01,0.08,0.04l0.04,0.25c0.01,0.05,0.06,0.09,0.13,0.09c0.13,0,0.29-0.16,0.46-0.46c0.07-0.12,0.1-0.21,0.1-0.32
		c0-0.14-0.02-0.27-0.04-0.41l-0.01-0.08c0-0.06,0.04-0.11,0.1-0.11c0.03,0,0.06,0.01,0.06,0.03l0.09,0.31
		c0.03,0.1,0.1,0.17,0.18,0.17c0.2,0,0.41-0.41,0.43-0.86c0.01-0.28,0.05-0.38,0.13-0.38c0.03,0,0.06,0.01,0.07,0.03l0.05,0.17
		c0.02,0.06,0.06,0.11,0.09,0.11c0.03,0,0.1-0.06,0.19-0.16c0.04-0.06,0.08-0.11,0.12-0.17c0.02-0.04,0.04-0.09,0.04-0.14
		c0-0.07-0.01-0.08-0.12-0.16c-0.1-0.07-0.15-0.17-0.15-0.28c0-0.19,0.08-0.4,0.32-0.81c0.22-0.37,0.25-0.41,0.29-0.41
		c0.05,0,0.09,0.05,0.09,0.11c0,0.04-0.01,0.08-0.03,0.11c-0.04,0.08-0.05,0.13-0.05,0.16c0,0.05,0.04,0.09,0.1,0.09
		c0.06,0,0.14-0.03,0.24-0.08c0.05-0.04,0.18-0.08,0.35-0.15c0.25-0.09,0.4-0.14,0.45-0.16c0.09-0.03,0.18-0.05,0.27-0.05
		c0.08,0,0.16,0.01,0.23,0.03c0.15,0.04,0.26,0.05,0.3,0.05c0.12,0,0.21-0.1,0.21-0.21c0-0.05-0.03-0.15-0.08-0.23
		c-0.07-0.11-0.11-0.17-0.12-0.19c-0.05-0.06-0.08-0.09-0.08-0.12l0.01-0.05c0.01-0.03,0.04-0.05,0.07-0.05
		c0.1,0,0.31,0.22,0.5,0.52c1.04,1.7,1.54,2.24,2.3,2.47c0.79,0.24,0.98,0.41,0.98,0.88c0,0.25-0.13,0.56-0.41,0.95
		c-0.53,0.73-0.72,1.17-0.72,1.65v0.11c0.06-0.03,0.11-0.05,0.15-0.07c0.11-0.05,0.18-0.08,0.21-0.09l0.33-0.07
		c0.1-0.02,0.19-0.14,0.19-0.28v-0.03l-0.03-0.29V19.5c0-0.17,0.08-0.3,0.18-0.3c0.04,0,0.08,0.04,0.1,0.08l0.21,0.45
		C43.8,19.91,43.9,20,44.17,20.13L44.17,20.13L44.17,20.13z M33.31,11.04l-0.01,0.21v0.13c0,0.22,0.03,0.31,0.11,0.31
		c0.09,0,0.23-0.17,0.29-0.34c0.04-0.11,0.07-0.27,0.07-0.36c0-0.06-0.01-0.12-0.07-0.25c-0.06-0.14-0.12-0.21-0.19-0.21
		C33.39,10.53,33.34,10.68,33.31,11.04L33.31,11.04L33.31,11.04z"/>
	<path style="fill:#FDDC02;" d="M32.28,8.46l0.01,0.12c0,0.12-0.04,0.35-0.09,0.56c-0.05,0.19-0.08,0.29-0.08,0.31
		c-0.02,0.08-0.02,0.16-0.03,0.24c0,0.19,0.09,0.36,0.23,0.43l0.14,0.08l0.03,0.19c-0.01,0.07,0.01,0.17,0.04,0.29
		c0.03,0.13,0.05,0.26,0.05,0.4c0,0.11-0.01,0.15-0.03,0.15c-0.05,0-0.14-0.14-0.22-0.34c-0.13-0.32-0.25-0.44-0.42-0.44
		c-0.15,0-0.24,0.02-0.41,0.1c0.14,0.18,0.22,0.33,0.38,0.69c0.21,0.47,0.29,0.57,0.62,0.73c0.07,0.04,0.12,0.08,0.12,0.12
		c0,0.06-0.05,0.1-0.12,0.1c-0.06,0-0.13-0.01-0.19-0.03l-0.1-0.01c-0.05,0-0.07,0.04-0.07,0.15c0,0.35,0.3,0.78,0.79,1.13
		c0.07,0.05,0.11,0.1,0.11,0.13c0,0.02-0.01,0.04-0.04,0.06c-0.02,0.02-0.04,0.03-0.07,0.03c-0.02,0-0.09-0.02-0.15-0.05
		c-0.03-0.02-0.06-0.03-0.1-0.03c-0.06,0-0.1,0.06-0.1,0.15c0,0.12,0.09,0.34,0.24,0.58c0.14,0.23,0.29,0.38,0.44,0.44l0.6,0.25
		c0.03,0.01,0.05,0.04,0.05,0.08c0,0.05-0.03,0.08-0.08,0.09l-0.1,0.01l-0.12,0.01l-0.16-0.01H33.4c-0.08,0-0.11,0.01-0.11,0.06
		c0,0.06,0.06,0.2,0.19,0.43c0.15,0.26,0.25,0.37,0.33,0.37c0.03,0,0.06-0.02,0.08-0.07l0.14-0.31c0.02-0.04,0.14-0.13,0.35-0.26
		c0.11-0.08,0.24-0.13,0.37-0.15c0.32-0.04,0.35-0.06,0.35-0.19c0-0.05-0.02-0.14-0.05-0.26c-0.01-0.07-0.02-0.16-0.04-0.28
		L34.97,14c0-0.07-0.02-0.11-0.06-0.11c-0.03,0-0.07,0.04-0.1,0.09c-0.16,0.26-0.39,0.42-0.57,0.42c-0.74,0-1.25-1.18-1.25-2.91
		l0.01-0.52l0.04-0.63l0.01-0.22c0-0.53-0.19-1.08-0.46-1.35L32.4,8.59L32.28,8.46L32.28,8.46L32.28,8.46z M33.99,18.14
		c-0.28-0.05-0.32-0.06-0.64-0.2c-0.22-0.1-0.35-0.14-0.5-0.14c-0.21,0-0.37,0.07-0.56,0.23l0.12,0.09l0.27,0.19l0.25,0.2
		c0.06,0.05,0.14,0.08,0.23,0.08C33.41,18.59,33.63,18.47,33.99,18.14L33.99,18.14z M39.09,20.56c0.07-0.17,0.11-0.21,0.27-0.34
		c0.37-0.32,0.54-0.56,0.54-0.74v-0.29c0-0.17,0.03-0.23,0.12-0.23c0.04,0,0.07,0.01,0.08,0.04l0.06,0.16
		c0.01,0.04,0.06,0.06,0.11,0.06c0.09,0,0.16-0.07,0.33-0.33c0.07-0.11,0.1-0.19,0.1-0.26c0-0.05-0.01-0.1-0.03-0.15
		c-0.03-0.07-0.06-0.14-0.09-0.21c-0.03-0.07-0.05-0.16-0.05-0.21c0-0.08,0.04-0.14,0.12-0.14c0.03,0,0.07,0.01,0.09,0.05l0.1,0.13
		c0.02,0.03,0.03,0.05,0.07,0.05c0.05,0,0.14-0.05,0.17-0.11l0.1-0.21c0.02-0.04,0.04-0.08,0.04-0.12c0-0.04-0.04-0.09-0.1-0.11
		l-0.19-0.08c-0.22-0.09-0.4-0.46-0.4-0.82c0-0.04,0.01-0.09,0.04-0.17l0.08-0.23c0.03-0.07,0.04-0.15,0.04-0.22
		c0-0.13-0.04-0.25-0.13-0.4c-0.09-0.15-0.15-0.24-0.16-0.28c-0.07-0.2-0.12-0.26-0.19-0.26c-0.05,0-0.09,0.01-0.17,0.06l-0.13,0.08
		l-0.19,0.21l-0.18,0.09c-0.11,0.06-0.22,0.3-0.22,0.5c0,0.29,0.06,0.44,0.49,1.22c0.18,0.33,0.27,0.57,0.27,0.75
		c0,0.54-0.55,0.98-1.45,1.17c-1.07,0.22-1.31,0.39-1.43,1.08c0.19-0.09,0.26-0.11,0.59-0.11l0.2,0h0.03c0.18,0,0.2-0.01,0.32-0.17
		c0.13-0.18,0.26-0.29,0.43-0.37l0.22-0.09l0.17-0.09l0.05-0.01c0.05,0,0.07,0.02,0.07,0.05c0,0.05-0.04,0.12-0.13,0.23
		c-0.12,0.15-0.2,0.32-0.2,0.43C38.95,20.3,38.98,20.4,39.09,20.56L39.09,20.56L39.09,20.56z"/>
	<path style="fill:#FDDC02;" d="M37.42,18.5c0.15,0.1,0.29,0.22,0.4,0.36c0.13,0.17,0.14,0.19,0.27,0.19c0.05,0,0.12-0.01,0.19-0.03
		l0.12-0.03c0.23-0.04,0.29-0.07,0.29-0.14c0-0.04-0.02-0.07-0.05-0.1l-0.16-0.13l-0.14-0.13c-0.09-0.08-0.27-0.15-0.42-0.15
		C37.75,18.34,37.61,18.39,37.42,18.5L37.42,18.5z M41.71,19.22l0.08-0.01l0.13-0.01l0.11,0.01l0.07,0c0.13,0,0.2-0.01,0.26-0.06
		c0.08-0.06,0.16-0.16,0.25-0.3c0.03-0.06,0.05-0.11,0.05-0.15c0-0.09-0.08-0.14-0.23-0.14C42.07,18.55,41.85,18.75,41.71,19.22
		L41.71,19.22L41.71,19.22z M18.17,47.2l0.08-0.16l0.19-0.2c0.16-0.17,0.24-0.41,0.24-0.69c0-0.14-0.03-0.29-0.07-0.42
		c-0.03-0.11-0.05-0.2-0.05-0.23c0-0.08,0.06-0.16,0.13-0.16c0.03,0,0.07,0.02,0.1,0.06l0.2,0.23c0.12,0.14,0.17,0.17,0.32,0.2
		l0.01-0.18l0.01-0.22c0-0.32-0.11-0.68-0.29-0.9c-0.1-0.14-0.15-0.22-0.15-0.27c0-0.05,0.03-0.09,0.07-0.09
		c0.01,0,0.03,0.01,0.05,0.03c0.13,0.09,0.19,0.13,0.23,0.13c0.06,0,0.12-0.16,0.12-0.33c0-0.25-0.11-0.54-0.27-0.74
		c-0.05-0.06-0.11-0.13-0.16-0.2c-0.02-0.02-0.03-0.05-0.03-0.07c0-0.06,0.05-0.1,0.12-0.1c0.05,0,0.08,0.01,0.16,0.07
		c0.04,0.03,0.07,0.04,0.1,0.04c0.1,0,0.14-0.15,0.14-0.54l-0.01-0.16l-0.01-0.24c-0.01-0.28-0.04-0.33-0.16-0.33h-0.1
		c-0.64,0-0.95-0.41-1.11-1.51c-0.12-0.8-0.42-1.36-0.78-1.49c-0.22-0.07-0.3-0.12-0.3-0.18c0-0.04,0.06-0.07,0.13-0.07
		c0.04,0,0.16,0.03,0.25,0.07c0.53,0.21,0.97,0.32,1.36,0.32c0.63,0,1.13-0.47,1.13-1.06c0-0.45-0.22-0.91-0.6-1.28
		c-0.11-0.1-0.22-0.17-0.33-0.2l-0.02,0l-0.07,0.03l0.02,0.19l0.05,0.13l0.01,0.06c0,0.03-0.03,0.05-0.06,0.05
		c-0.04,0-0.07-0.02-0.1-0.05l-0.24-0.36c-0.19-0.28-0.61-0.52-0.91-0.52c-0.11,0-0.18,0.05-0.18,0.13c0,0.04,0.03,0.1,0.08,0.15
		c0.06,0.08,0.12,0.17,0.12,0.21l-0.01,0.05c-0.01,0.03-0.03,0.05-0.05,0.05h-0.01c-0.06,0-0.09-0.03-0.38-0.35
		c-0.24-0.27-0.72-0.53-0.98-0.53c-0.04,0-0.07,0.01-0.09,0.04c-0.02,0.01-0.03,0.04-0.03,0.05c0,0.04,0.03,0.09,0.09,0.15
		c0.08,0.08,0.15,0.17,0.15,0.2c0,0.03-0.03,0.06-0.07,0.06c-0.08,0-0.25-0.11-0.56-0.36c-0.5-0.39-0.72-0.75-0.72-1.18
		c0-0.51,0.37-0.92,0.84-0.92c0.27,0,0.64,0.13,0.89,0.32l0.65,0.49c0.3,0.22,0.66,0.35,1.04,0.35c0.08,0,0.16-0.02,0.23-0.06
		c0.06-0.03,0.09-0.06,0.09-0.09c0-0.02-0.05-0.04-0.12-0.06c-0.24-0.05-0.42-0.14-0.56-0.24l-0.66-0.5
		c-0.25-0.19-0.42-0.31-0.52-0.36c-0.35-0.18-0.42-0.23-0.42-0.27c0-0.02,0.03-0.04,0.08-0.04c0.03,0,0.07,0.01,0.11,0.03l0.34,0.14
		c0.11,0.05,0.3,0.16,0.56,0.33c0.7,0.48,1.07,0.63,1.48,0.63c0.4,0,0.69-0.29,0.69-0.66c0-0.08-0.02-0.16-0.05-0.23l-0.07-0.13
		c-0.02-0.05-0.06-0.08-0.08-0.07l-0.04,0.05l-0.04,0.28c0,0.01-0.01,0.04-0.04,0.09c-0.02,0.05-0.06,0.09-0.09,0.13
		c-0.07,0.07-0.13,0.09-0.24,0.09c-0.21,0-0.44-0.11-1.06-0.5c-0.63-0.4-1.19-0.61-1.64-0.61c-0.95,0-1.72,0.77-1.72,1.72
		c0,1.33,0.81,1.93,3.35,2.48c0.96,0.21,1.39,0.49,1.39,0.92c0,0.39-0.31,0.64-0.82,0.64c-0.15,0-0.27,0-0.36-0.02
		c-0.08-0.01-0.54-0.14-1.36-0.37c-0.57-0.16-1.21-0.25-1.77-0.25c-1,0-1.67,0.3-2.13,0.94c-0.05,0.08-0.11,0.12-0.14,0.12
		c-0.02,0-0.06-0.02-0.11-0.05l-0.19-0.15c-0.13-0.1-0.34-0.18-0.47-0.18c-0.1,0-0.2,0.04-0.28,0.11c-0.07,0.06-0.12,0.09-0.14,0.09
		c-0.07,0-0.21-0.17-0.32-0.38c-0.15-0.31-0.23-0.62-0.23-0.9c0-0.13,0.05-0.23,0.1-0.23c0.04,0,0.08,0.04,0.1,0.11l0.1,0.38
		c0.06,0.21,0.18,0.38,0.27,0.38c0.04,0,0.11-0.06,0.2-0.16c0.05-0.05,0.08-0.11,0.1-0.18c0.08-0.25,0.1-0.28,0.17-0.28
		c0.08,0,0.12,0.05,0.17,0.29c0.01,0.04,0.02,0.11,0.08,0.23c0.04,0.09,0.1,0.17,0.16,0.24c0.04,0.04,0.09,0.07,0.14,0.07
		c0.12,0,0.23-0.2,0.23-0.41l-0.01-0.06l-0.01-0.25c0-0.09,0.01-0.12,0.07-0.12c0.03,0,0.05,0.01,0.09,0.06
		c0.06,0.08,0.13,0.14,0.22,0.19c0.08,0.04,0.15,0.06,0.19,0.06c0.04,0,0.08-0.03,0.13-0.06c0.03-0.04,0.05-0.07,0.05-0.11
		c0-0.04-0.04-0.1-0.19-0.24c-0.07-0.08-0.17-0.26-0.27-0.53c-0.03-0.1-0.08-0.17-0.12-0.17c-0.01,0-0.04,0.01-0.09,0.03l-0.17,0.06
		l-0.12,0.05l-0.04,0.01c-0.06,0-0.1-0.04-0.1-0.09c0-0.05,0.12-0.19,0.27-0.32c0.11-0.09,0.17-0.22,0.17-0.36
		c0.01-0.22,0.05-0.39,0.09-0.39l0.04-0.46c0.02-0.24,0.11-0.67,0.2-0.92c0.01-0.05,0.03-0.08,0.05-0.08c0.04,0,0.07,0.1,0.07,0.21
		v0.07l-0.01,0.13c0,0.17,0.03,0.26,0.08,0.26c0.06,0,0.12-0.08,0.18-0.23l0.12-0.3c0.03-0.08,0.05-0.17,0.05-0.25
		c0-0.26-0.16-0.44-0.37-0.44l-0.09,0.01c-0.03,0.01-0.06,0.02-0.09,0.03c-0.07,0-0.13-0.08-0.13-0.17l0.01-0.19l-0.01-0.27
		l-0.06-0.28l-0.01-0.13l-0.12,0.06l-0.14,0.12l-0.21,0.17l-0.17,0.14c-0.03,0.02-0.06,0.04-0.1,0.04c-0.1,0-0.12-0.02-0.12-0.23
		l0-0.05c0-0.16-0.07-0.3-0.35-0.62c-0.01-0.01-0.04-0.04-0.07-0.08l-0.05,0.09l-0.15,0.24l-0.15,0.37l-0.03,0.24
		c-0.01,0.07-0.03,0.12-0.06,0.12c-0.02,0-0.07-0.04-0.12-0.09c-0.2-0.23-0.27-0.27-0.57-0.38l-0.03,0.09
		c-0.05,0.15-0.07,0.25-0.08,0.28l-0.01,0.25v0.19c0,0.07-0.03,0.11-0.07,0.11h-0.01c0,0-0.03-0.03-0.08-0.07
		c-0.03-0.02-0.09-0.04-0.16-0.04c-0.25,0-0.41,0.13-0.41,0.34c0,0.16,0.06,0.28,0.3,0.65c0.11,0.17,0.23,0.29,0.29,0.29
		c0.03,0,0.06-0.09,0.06-0.19l-0.02-0.16c-0.02-0.06-0.04-0.13-0.04-0.2c0-0.07,0.03-0.11,0.06-0.11c0.12,0,0.24,0.34,0.29,0.82
		l0.05,0.49c0.02,0.18,0.08,0.36,0.16,0.53c0.12,0.25,0.24,0.41,0.35,0.49c0.12,0.09,0.2,0.18,0.2,0.23c0,0.04-0.03,0.08-0.07,0.08
		c-0.09-0.03-0.18-0.06-0.27-0.09l-0.11-0.01c-0.27,0-0.35,0.15-0.35,0.61c0,0.55,0.37,1.34,0.78,1.67l0.61,0.49
		c0.31,0.25,0.54,0.66,0.54,0.95c0,0.38-0.42,0.77-1.15,1.03l-0.44,0.16c-0.34,0.12-0.47,0.34-0.61,0.98
		c0.18-0.05,0.25-0.07,0.37-0.07h0.06l0.2,0c0.18,0,0.31-0.1,0.31-0.26v-0.12c0-0.04,0.05-0.08,0.12-0.12
		c0.12-0.06,0.18-0.09,0.19-0.09l0.14-0.12c0.02-0.02,0.05-0.03,0.07-0.03c0.04,0,0.07,0.04,0.07,0.08c0,0.04-0.01,0.08-0.02,0.12
		c-0.05,0.12-0.07,0.28-0.07,0.45c0,0.33,0.05,0.5,0.22,0.74c0.01-0.06,0.02-0.12,0.04-0.17c0.03-0.07,0.1-0.19,0.23-0.36
		c0.2-0.28,0.35-0.62,0.35-0.8l-0.01-0.06l-0.04-0.31c0-0.05,0.02-0.11,0.06-0.14c0.03-0.02,0.06-0.04,0.09-0.04
		c0.05,0,0.09,0.04,0.13,0.13c0.03,0.07,0.07,0.12,0.09,0.12c0.05,0,0.14-0.12,0.2-0.27c0.05-0.1,0.07-0.2,0.07-0.28
		c0-0.06-0.02-0.11-0.04-0.17c-0.03-0.07-0.05-0.12-0.05-0.15s0.01-0.05,0.05-0.09c0.02-0.01,0.04-0.03,0.07-0.03
		c0.02,0,0.05,0.01,0.08,0.03l0.12,0.08c0.03,0.02,0.07,0.04,0.1,0.05c0.05,0,0.13-0.06,0.19-0.15c0.12-0.18,0.19-0.33,0.19-0.38
		c0-0.04-0.02-0.06-0.09-0.11c-0.27-0.18-0.44-0.47-0.44-0.7c0-0.07,0.02-0.13,0.04-0.2l0.13-0.35c0.07-0.18,0.1-0.28,0.11-0.28
		l0.04-0.01c0.04,0,0.07,0.04,0.07,0.1c0,0.05-0.01,0.1-0.03,0.15c-0.03,0.08-0.05,0.17-0.05,0.25c0,0.09,0.05,0.14,0.14,0.14
		c0.08,0,0.15-0.02,0.22-0.05c0.4-0.17,0.72-0.27,0.91-0.27c0.18,0,0.29,0.04,0.48,0.17c0.05,0.04,0.09,0.05,0.12,0.05
		c0.02,0,0.05-0.02,0.08-0.05c0.01-0.02,0.02-0.04,0.03-0.07c0-0.04-0.03-0.11-0.08-0.17c-0.07-0.09-0.09-0.14-0.09-0.19
		c0-0.04,0.02-0.06,0.07-0.06c0.21,0,0.53,0.65,0.84,1.7c0.24,0.82,0.31,0.9,1.1,1.35c0.67,0.37,0.92,0.75,0.92,1.35
		c0,0.59-0.16,1.35-0.51,2.35c-0.11,0.32-0.15,0.53-0.15,0.71c0,0.14,0.02,0.28,0.13,0.63c0.05,0.17,0.08,0.27,0.09,0.31
		C18.1,47.07,18.13,47.14,18.17,47.2L18.17,47.2L18.17,47.2z"/>
	<path style="fill:#FDDC02;" d="M15.1,45.35c0.08-0.18,0.1-0.23,0.25-0.45c0.22-0.33,0.29-0.49,0.29-0.65v-0.21
		c0-0.2,0.04-0.29,0.12-0.29c0.03,0,0.06,0.01,0.07,0.04l0.07,0.11c0.02,0.03,0.05,0.06,0.09,0.05c0.04,0,0.11-0.05,0.15-0.11
		c0.09-0.14,0.15-0.33,0.15-0.47l-0.01-0.14l-0.01-0.15c0-0.08,0.03-0.11,0.11-0.11c0.05,0,0.07,0.02,0.12,0.12
		c0.03,0.06,0.06,0.11,0.1,0.11c0.03,0,0.08-0.04,0.11-0.08l0.1-0.16l0.08-0.12l0.02-0.06c0-0.04-0.02-0.07-0.1-0.12
		c-0.25-0.18-0.35-0.45-0.37-0.94c-0.01-0.37-0.03-0.61-0.07-0.73c0-0.02-0.08-0.22-0.23-0.57c-0.07-0.15-0.12-0.31-0.16-0.47
		c-0.03-0.12-0.07-0.16-0.17-0.16c-0.36,0-0.63,0.31-0.63,0.71c0,0.24,0.1,0.62,0.28,1.08c0.26,0.64,0.32,0.87,0.32,1.1
		c0,0.49-0.19,0.7-0.87,0.94c-0.76,0.27-1.11,0.66-1.24,1.36c0.06-0.02,0.1-0.04,0.13-0.05c0.06-0.03,0.12-0.05,0.19-0.06l0.21-0.05
		c0.18-0.04,0.33-0.15,0.36-0.25l0.05-0.19c0.01-0.04,0.04-0.08,0.08-0.09l0.12-0.05l0.12-0.05l0.03,0.05l-0.05,0.17
		c-0.02,0.06-0.03,0.16-0.03,0.31C14.88,44.96,14.93,45.14,15.1,45.35L15.1,45.35L15.1,45.35z M7.99,33.1
		c0.01,0.05,0.02,0.1,0.03,0.15c0,0.05-0.02,0.16-0.05,0.34l-0.02,0.27c0,0.23,0.04,0.49,0.12,0.69c0.07,0.19,0.08,0.25,0.08,0.31
		l-0.01,0.05c-0.01,0.05-0.03,0.09-0.05,0.09c-0.03,0-0.07-0.03-0.14-0.08c-0.15-0.13-0.31-0.2-0.49-0.2
		c-0.08,0-0.15,0.01-0.23,0.03L7.3,34.9l0.2,0.49l0.27,0.42l0.3,0.2c0.02,0.02,0.05,0.04,0.08,0.08c0.02,0.04,0.04,0.07,0.04,0.09
		c0,0.02-0.02,0.04-0.05,0.04l-0.27,0.01c-0.04,0-0.07,0.03-0.07,0.05c0,0.04,0.03,0.18,0.11,0.39l0.13,0.38l0.23,0.21l0.24,0.17
		c0.07,0.05,0.11,0.11,0.11,0.15c0,0.04-0.02,0.07-0.04,0.07l-0.13,0.01c-0.04,0-0.07,0.04-0.07,0.1c0,0.1,0.09,0.28,0.27,0.52
		c0.21,0.28,0.35,0.37,0.59,0.37h0.2c0.09,0,0.15,0.05,0.15,0.12c0,0.06-0.04,0.1-0.13,0.12C9.26,38.96,9.21,39,9.21,39.08
		c0,0.04,0.03,0.09,0.07,0.15l0.1,0.14c0.09,0.12,0.19,0.2,0.25,0.2c0.03,0,0.12-0.04,0.19-0.12c0.12-0.13,0.26-0.25,0.43-0.29
		c0.46-0.11,0.56-0.16,0.56-0.27c0-0.04-0.01-0.09-0.05-0.15c-0.15-0.26-0.2-0.43-0.2-0.65c0-0.16-0.04-0.28-0.1-0.28
		c-0.02,0-0.06,0.04-0.11,0.1c-0.11,0.17-0.29,0.28-0.46,0.28c-0.46,0-1.01-0.71-1.29-1.67c-0.06-0.23-0.1-0.47-0.1-0.71
		c0-0.25,0.03-0.53,0.1-0.81c0.05-0.22,0.1-0.43,0.15-0.65l0.01-0.18C8.76,33.84,8.46,33.42,7.99,33.1L7.99,33.1L7.99,33.1z"/>
	<path style="fill:#FDDC02;" d="M8.94,34.94c-0.1,0.19-0.19,0.6-0.19,0.86c0,0.16,0.05,0.28,0.12,0.28c0.02,0,0.05-0.02,0.07-0.06
		l0.15-0.27c0.02-0.04,0.05-0.09,0.09-0.16c0.05-0.08,0.09-0.15,0.09-0.2C9.28,35.23,9.13,35.03,8.94,34.94L8.94,34.94L8.94,34.94z
		 M10.4,40.91c0.03,0.04,0.05,0.05,0.07,0.07c0.05,0.05,0.09,0.09,0.1,0.1c0.26,0.27,0.29,0.29,0.42,0.29
		c0.11,0,0.36-0.06,0.49-0.13c0.05-0.03,0.09-0.06,0.09-0.09c0-0.01-0.04-0.07-0.13-0.15l-0.15-0.13c-0.11-0.1-0.27-0.19-0.35-0.19
		C10.8,40.68,10.64,40.75,10.4,40.91L10.4,40.91L10.4,40.91z M13.47,43.3c0.14,0.06,0.19,0.08,0.27,0.13
		c0.12,0.08,0.19,0.12,0.21,0.13c0.04,0.02,0.11,0.03,0.21,0.03c0.05,0,0.11-0.01,0.16-0.03l0.28-0.1l0.27-0.09
		c0.07-0.02,0.12-0.06,0.12-0.1c0-0.02-0.06-0.05-0.15-0.07c-0.07-0.02-0.13-0.04-0.2-0.07c-0.32-0.13-0.37-0.15-0.49-0.15
		C13.89,42.99,13.64,43.11,13.47,43.3L13.47,43.3z M16.82,45.97c0.09-0.21,0.15-0.25,0.45-0.27c0.34-0.02,0.66-0.63,0.66-1.04
		c0-0.04-0.01-0.07-0.03-0.07c-0.02,0-0.05,0.01-0.09,0.04c-0.06,0.04-0.13,0.09-0.2,0.12l-0.38,0.17
		c-0.26,0.11-0.48,0.45-0.48,0.72C16.76,45.74,16.77,45.82,16.82,45.97L16.82,45.97z M40.97,42.8l0.05-0.14l0.05-0.19
		c0.01-0.04,0.06-0.11,0.14-0.23c0.13-0.18,0.2-0.4,0.2-0.66c0-0.09-0.02-0.17-0.07-0.25c-0.03-0.05-0.04-0.1-0.04-0.13
		c0-0.01,0.01-0.04,0.03-0.06c0.02-0.03,0.04-0.04,0.05-0.04l0.01,0c0.03,0,0.09,0.04,0.14,0.09c0.05,0.07,0.1,0.11,0.13,0.11
		c0.06,0,0.12-0.1,0.16-0.25c0.01-0.04,0.02-0.09,0.02-0.13c0-0.06-0.05-0.23-0.12-0.37c-0.02-0.05-0.04-0.1-0.04-0.14
		c0-0.05,0.03-0.08,0.07-0.08c0.04,0,0.1,0.04,0.18,0.11c0.03,0.04,0.07,0.05,0.1,0.05c0.08,0,0.14-0.08,0.21-0.29
		c0.04-0.13,0.06-0.19,0.06-0.21c0-0.04-0.02-0.06-0.05-0.06l-0.04,0l-0.16,0.01c-0.24,0-0.58-0.17-0.74-0.36l-0.37-0.45
		c-0.14-0.18-0.35-0.44-0.33-0.44l-0.31-0.2c-0.05-0.04-0.08-0.08-0.08-0.11c0-0.05,0.05-0.08,0.13-0.08c0.07,0,0.29,0.07,0.68,0.24
		c0.38,0.16,0.98,0.3,1.34,0.3c0.64,0,1.16-0.51,1.16-1.13c0-0.34-0.15-0.66-0.53-1.1c-0.07-0.08-0.19-0.16-0.24-0.16
		c-0.04,0-0.07,0.03-0.07,0.07c0,0.04,0.01,0.09,0.04,0.15c0.01,0.04,0.02,0.08,0.02,0.12c0,0.06-0.02,0.09-0.06,0.09
		c-0.08,0-0.17-0.14-0.24-0.37c-0.08-0.3-0.26-0.47-0.66-0.68c-0.15-0.07-0.35-0.15-0.42-0.15c-0.03,0-0.05,0.03-0.05,0.06
		c0,0.05,0.02,0.1,0.05,0.16c0.05,0.09,0.09,0.18,0.1,0.25v0.01c0,0.05-0.02,0.08-0.07,0.08c-0.08,0-0.1-0.02-0.3-0.32
		c-0.1-0.15-0.37-0.35-0.6-0.45c-0.07-0.03-0.15-0.05-0.23-0.05h-0.01c-0.04,0-0.08,0.02-0.08,0.05c0,0.01,0.02,0.05,0.06,0.12
		l0.02,0.07c0,0.04-0.02,0.07-0.06,0.07c-0.08,0-0.33-0.2-0.52-0.42c-0.21-0.25-0.34-0.55-0.34-0.8c0-0.5,0.48-0.96,1.02-0.96
		c0.14,0,0.25,0.02,0.34,0.07l0.46,0.24l0.54,0.36c0.31,0.21,0.74,0.36,1,0.36c0.09,0,0.17-0.01,0.41-0.08
		c0.13-0.04,0.21-0.08,0.21-0.13l-0.01-0.01l-0.04-0.03L43,34.34c-0.16-0.01-0.53-0.18-0.82-0.37l-0.61-0.4l-0.54-0.23
		c-0.04-0.01-0.07-0.04-0.07-0.07c0-0.02,0.03-0.05,0.06-0.05c0,0,0.05,0.01,0.15,0.03l0.51,0.15c0.12,0.04,0.33,0.13,0.61,0.28
		c0.56,0.29,0.91,0.42,1.18,0.42c0.31,0,0.53-0.21,0.53-0.5c0-0.13-0.02-0.25-0.05-0.38c-0.02-0.06-0.04-0.12-0.08-0.17
		C43.85,33.02,43.82,33,43.8,33c-0.04,0-0.06,0.05-0.06,0.11l0.01,0.09l0,0.07c0,0.25-0.09,0.33-0.36,0.33
		c-0.22,0-0.52-0.08-1.19-0.35c-0.63-0.25-1.02-0.34-1.42-0.34c-0.99,0-1.87,0.82-1.87,1.74c0,0.8,0.53,1.41,1.62,1.86l1.13,0.47
		c0.93,0.38,1.27,0.65,1.27,1.01c0,0.31-0.28,0.5-0.71,0.5c-0.19,0-0.43-0.05-0.86-0.19c-1.05-0.33-1.74-0.47-2.34-0.47
		c-0.99,0-1.68,0.27-2.25,0.86c-0.07,0.08-0.11,0.1-0.18,0.1c-0.04,0-0.09-0.01-0.19-0.07c-0.1-0.06-0.21-0.1-0.29-0.1
		c-0.1,0-0.25,0.08-0.32,0.18l-0.13,0.17c-0.04,0.05-0.08,0.08-0.11,0.08c-0.1,0-0.27-0.16-0.37-0.36c-0.06-0.1-0.11-0.22-0.13-0.34
		c-0.02-0.12-0.03-0.24-0.03-0.36l0.01-0.25l0.04-0.27c0.01-0.08,0.02-0.15,0.04-0.23c0.01-0.03,0.04-0.05,0.06-0.05
		c0.07,0,0.1,0.06,0.1,0.21v0.08l0,0.06c0,0.37,0.15,0.72,0.31,0.72c0.13,0,0.24-0.23,0.34-0.69c0.01-0.09,0.05-0.14,0.1-0.14
		c0.05,0,0.08,0.06,0.12,0.27c0.02,0.13,0.11,0.31,0.2,0.42c0.05,0.07,0.1,0.1,0.15,0.1c0.11,0,0.18-0.16,0.24-0.54
		c0.02-0.15,0.06-0.24,0.11-0.24c0.02,0,0.04,0.01,0.05,0.03c0.01,0.01,0.04,0.06,0.09,0.15c0.04,0.06,0.09,0.1,0.15,0.13
		c0.06,0.04,0.12,0.05,0.15,0.05c0.05,0,0.09-0.02,0.12-0.05c0.06-0.05,0.09-0.09,0.09-0.11c0-0.02-0.03-0.06-0.08-0.11
		c-0.08-0.09-0.15-0.22-0.24-0.44c-0.05-0.15-0.1-0.25-0.12-0.3c-0.02-0.05-0.05-0.08-0.07-0.09l-0.04-0.01l-0.08,0.01
		c-0.01,0-0.11,0.04-0.28,0.08l-0.08,0.01c-0.04,0-0.06-0.02-0.06-0.06c0-0.04,0.05-0.1,0.11-0.15c0.33-0.27,0.54-0.71,0.61-1.36
		c0.04-0.39,0.09-0.55,0.27-0.78c0.03-0.05,0.06-0.08,0.08-0.08c0.05,0,0.08,0.04,0.08,0.12c0,0.06-0.02,0.13-0.05,0.19
		c-0.02,0.05-0.03,0.11-0.03,0.16l0.01,0.05l0.02,0.08l0.15-0.06l0.16-0.18c0.09-0.11,0.17-0.36,0.17-0.54
		c0-0.13-0.03-0.22-0.11-0.31c-0.08-0.1-0.14-0.14-0.2-0.14l-0.09,0.01l-0.09,0c-0.08,0-0.13-0.02-0.13-0.08l0.03-0.1l0.01-0.15
		l-0.08-0.33l-0.06-0.16l-0.04-0.13l-0.09,0.06l-0.2,0.12c-0.06,0.04-0.12,0.09-0.16,0.15c-0.19,0.23-0.2,0.24-0.28,0.24
		c-0.04,0-0.07-0.01-0.07-0.05l0.01-0.05c0.03-0.12,0.04-0.22,0.04-0.28c0-0.23-0.17-0.58-0.37-0.77c-0.28,0.27-0.42,0.56-0.42,0.84
		v0.16c0,0.06-0.02,0.09-0.06,0.09h-0.01c-0.03,0-0.07-0.03-0.09-0.07L35.39,33c-0.01-0.01-0.08-0.07-0.21-0.17
		c-0.04-0.03-0.07-0.06-0.11-0.09l-0.05,0.1c-0.13,0.26-0.18,0.42-0.19,0.63c0,0.18-0.02,0.23-0.06,0.23
		c-0.02,0-0.05-0.01-0.08-0.03c-0.2-0.11-0.22-0.12-0.31-0.12c-0.24,0-0.4,0.17-0.4,0.42c0,0.09,0.05,0.25,0.17,0.44
		c0.12,0.22,0.3,0.41,0.38,0.41c0.02,0,0.03-0.01,0.03-0.08v-0.03l-0.01-0.23l-0.03-0.17V34.3c0-0.05,0.02-0.07,0.06-0.07
		c0.12,0,0.22,0.35,0.31,1.05c0.08,0.62,0.25,1.04,0.52,1.28c0.07,0.06,0.11,0.11,0.11,0.14c0,0.02-0.02,0.04-0.05,0.04
		c-0.04,0-0.1-0.03-0.17-0.07c-0.04-0.02-0.09-0.04-0.14-0.04c-0.13,0-0.28,0.15-0.31,0.32l-0.12,0.75l-0.09,1.06
		c-0.01,0.2,0.01,0.47,0.08,0.8c0.06,0.29,0.09,0.49,0.09,0.63c0,0.79-0.49,1.42-1.31,1.66l-0.85,0.25
		c-0.53,0.16-0.79,0.51-0.86,1.15c0.14-0.11,0.18-0.12,0.38-0.16l0.25-0.04c0.11-0.02,0.18-0.04,0.23-0.07
		c0.02-0.01,0.07-0.06,0.15-0.14l0.22-0.25c0.09-0.1,0.16-0.15,0.21-0.15c0.03,0,0.05,0.04,0.05,0.08c0,0.05-0.03,0.12-0.09,0.22
		c-0.06,0.1-0.09,0.22-0.09,0.34c0,0.17,0.04,0.28,0.21,0.52c0.02-0.05,0.04-0.11,0.06-0.16c0.02-0.04,0.09-0.14,0.2-0.28
		c0.18-0.24,0.32-0.49,0.32-0.6c0-0.2,0.02-0.27,0.07-0.27c0.05,0,0.05,0.01,0.07,0.13c0.01,0.03,0.02,0.06,0.04,0.08
		c0.03,0.04,0.06,0.05,0.08,0.05c0.02,0,0.06-0.02,0.11-0.05c0.08-0.05,0.15-0.11,0.21-0.19c0.06-0.07,0.1-0.15,0.13-0.24
		c0.04-0.12,0.07-0.2,0.07-0.25v-0.17c0-0.05,0.02-0.08,0.04-0.08c0.03,0,0.1,0.07,0.14,0.15c0.03,0.05,0.05,0.07,0.09,0.07h0
		c0.05,0,0.09-0.02,0.12-0.05c0.16-0.16,0.26-0.35,0.26-0.5L35.3,41l-0.05-0.2l0-0.02c0-0.04,0.03-0.07,0.06-0.07
		c0.06,0,0.13,0.08,0.22,0.28c0.04,0.09,0.08,0.14,0.12,0.14c0.06,0,0.11-0.05,0.24-0.23L36,40.72c0.03-0.04,0.04-0.08,0.04-0.13
		c0-0.05-0.01-0.09-0.04-0.13l-0.1-0.16c-0.02-0.03-0.03-0.07-0.03-0.13c0-0.18,0.07-0.38,0.2-0.63c0.1-0.17,0.15-0.28,0.17-0.33
		c0.02-0.05,0.04-0.08,0.07-0.08c0.02,0,0.04,0.03,0.04,0.06l-0.01,0.15v0.21c0.02,0.05,0.05,0.07,0.11,0.07
		c0.05,0,0.09-0.01,0.14-0.03l0.33-0.12c0.1-0.04,0.2-0.09,0.3-0.15c0.52-0.29,0.68-0.34,0.94-0.34c0.16,0,0.35,0.06,0.63,0.19
		c0.06,0.03,0.1,0.04,0.14,0.04s0.08-0.02,0.11-0.06c0.02-0.03,0.04-0.07,0.04-0.1c0-0.05-0.02-0.1-0.05-0.16
		c-0.04-0.07-0.08-0.17-0.08-0.2c0-0.04,0.02-0.06,0.06-0.06c0.03,0,0.08,0.04,0.1,0.07c0.03,0.06,0.14,0.24,0.3,0.53
		c0.25,0.44,0.57,0.74,0.85,0.81l0.58,0.13c0.18,0.04,0.23,0.11,0.23,0.34c0,0.41-0.2,0.77-0.53,0.99l-0.48,0.31
		c-0.17,0.11-0.31,0.41-0.31,0.67c0,0.16,0.04,0.45,0.09,0.68l0.09-0.09l0.23-0.13l0.2-0.2l0.11-0.29l0.1-0.27
		c0.05-0.13,0.11-0.21,0.16-0.21c0.04,0,0.07,0.07,0.07,0.2v0.08C40.79,42.43,40.82,42.51,40.97,42.8L40.97,42.8L40.97,42.8z"/>
	<path style="fill:#FDDC02;" d="M33.14,46.82c0.16-0.15,0.19-0.16,0.64-0.25c0.36-0.07,0.53-0.24,0.61-0.6
		c0.06-0.26,0.09-0.31,0.33-0.45c0.08-0.04,0.14-0.09,0.17-0.13c0.03-0.04,0.05-0.05,0.07-0.05c0.02,0,0.04,0.02,0.04,0.06
		c0,0.04-0.03,0.12-0.08,0.22c-0.04,0.06-0.05,0.14-0.05,0.26c0,0.21,0.04,0.35,0.16,0.53c0.08-0.18,0.13-0.23,0.33-0.37
		c0.26-0.19,0.36-0.4,0.41-0.88c0.02-0.2,0.06-0.31,0.11-0.31c0.02,0,0.04,0.01,0.06,0.04l0.09,0.2c0.01,0.02,0.04,0.04,0.08,0.04
		c0.03,0,0.11-0.04,0.17-0.1l0.19-0.17c0.07-0.07,0.13-0.26,0.16-0.56c0.01-0.11,0.05-0.18,0.09-0.18c0.03,0,0.05,0.02,0.06,0.06
		l0.08,0.27c0.02,0.06,0.06,0.1,0.09,0.1c0.02,0,0.05-0.02,0.11-0.06c0.07-0.06,0.13-0.13,0.18-0.2c0.06-0.08,0.09-0.17,0.09-0.27
		V43.8c0-0.05,0.02-0.11,0.05-0.15c0.03-0.04,0.04-0.05,0.06-0.05c0.03,0,0.06,0.03,0.07,0.07l0.05,0.15
		c0.03,0.06,0.07,0.1,0.13,0.1c0.07,0,0.14-0.06,0.25-0.21c0.02-0.04,0.05-0.07,0.08-0.1c0.06-0.07,0.09-0.13,0.09-0.17
		c0-0.01-0.02-0.05-0.05-0.09c-0.19-0.25-0.29-0.56-0.29-0.9c0-0.44,0.17-0.81,0.67-1.5c0.31-0.41,0.48-0.8,0.48-1.06
		c0-0.07-0.03-0.11-0.1-0.11c-0.05,0-0.1,0.01-0.16,0.05c-0.05,0.02-0.08,0.04-0.1,0.04c-0.02,0-0.06-0.02-0.09-0.05l-0.09-0.1
		l-0.06-0.11c-0.02-0.04-0.06-0.06-0.11-0.06c-0.01,0-0.04,0.01-0.1,0.02l-0.12,0.01c-0.14,0-0.19,0.05-0.19,0.19l0,0.08l0.01,0.06
		c0,0.11-0.1,0.3-0.24,0.42l-0.25,0.22c-0.31,0.28-0.55,0.72-0.55,1.01c0,0.13,0.04,0.33,0.11,0.58c0.12,0.4,0.16,0.59,0.16,0.71
		c0,0.63-0.98,1.47-2.77,2.39c-0.91,0.46-1.14,0.74-1.14,1.36L33.14,46.82L33.14,46.82L33.14,46.82z M32.27,32.92v0.33
		c0,0.07-0.01,0.15-0.03,0.22c-0.04,0.18-0.05,0.25-0.05,0.3c0,0.26,0.03,0.38,0.18,0.65c0.08,0.14,0.14,0.31,0.14,0.44
		c0,0.05-0.03,0.08-0.06,0.08c-0.02,0-0.04-0.01-0.06-0.04l-0.11-0.15c-0.08-0.11-0.16-0.14-0.38-0.14l-0.23,0.01
		c0.09,0.23,0.12,0.31,0.16,0.46c0.11,0.43,0.12,0.46,0.36,0.67c0.24,0.21,0.26,0.24,0.26,0.31c0,0.06-0.04,0.11-0.09,0.11
		l-0.08-0.01l-0.05,0c-0.07,0-0.14,0.13-0.14,0.28c0,0.08,0.03,0.22,0.08,0.33c0.03,0.08,0.06,0.13,0.09,0.16l0.13,0.13
		c0.04,0.04,0.06,0.09,0.05,0.14c0,0.06-0.04,0.12-0.08,0.12c-0.03,0-0.07-0.01-0.12-0.05c-0.03-0.01-0.06-0.02-0.09-0.03
		c-0.06,0-0.09,0.04-0.09,0.11l0.02,0.2l0.08,0.34c0.02,0.07,0.07,0.16,0.15,0.25c0.05,0.07,0.12,0.12,0.2,0.16
		c0.17,0.07,0.26,0.11,0.27,0.12c0.03,0.02,0.04,0.06,0.04,0.11c0,0.05-0.04,0.09-0.09,0.09c-0.01,0-0.06-0.01-0.14-0.03l-0.13-0.01
		c-0.13,0-0.14,0-0.14,0.11c0,0.07,0.01,0.14,0.02,0.21l0.05,0.21c0.05,0.23,0.13,0.34,0.21,0.34c0.02,0,0.05-0.02,0.1-0.05
		c0.19-0.14,0.58-0.28,0.82-0.28c0.25,0,0.53,0.03,0.64,0.06c0.06,0.02,0.1,0.04,0.12,0.04c0.03,0,0.04-0.04,0.05-0.15l0.03-0.24
		l0.05-0.41l0.04-0.31v-0.17c-0.04,0.03-0.07,0.06-0.11,0.09c-0.23,0.21-0.37,0.28-0.6,0.28c-0.61,0-0.95-0.68-0.95-1.88
		c0-0.49,0.07-1.19,0.21-1.99c0.03-0.17,0.05-0.29,0.05-0.36C33.03,33.66,32.75,33.24,32.27,32.92L32.27,32.92L32.27,32.92z"/>
	<path style="fill:#FDDC02;" d="M33.17,35.89l0.12-0.12l0.12-0.11c0.1-0.09,0.18-0.27,0.18-0.41c0-0.06-0.02-0.13-0.04-0.19
		c-0.05-0.1-0.13-0.19-0.19-0.19c-0.04,0-0.09,0.11-0.1,0.28l-0.03,0.2l-0.04,0.2l-0.01,0.2V35.89L33.17,35.89z M32,41.31
		c0.13,0.05,0.16,0.07,0.31,0.24c0.18,0.22,0.29,0.27,0.53,0.27c0.06,0,0.13-0.01,0.19-0.02l0.17-0.05l0.13-0.04
		c0.06-0.02,0.1-0.04,0.1-0.07c0-0.03-0.1-0.11-0.26-0.22c-0.1-0.07-0.21-0.13-0.32-0.19c-0.11-0.05-0.21-0.08-0.31-0.08
		C32.36,41.13,32.18,41.19,32,41.31L32,41.31z M33.8,45.19c0.23-0.1,0.31-0.14,0.58-0.29c0.23-0.13,0.36-0.2,0.38-0.21
		c0.25-0.13,0.36-0.22,0.36-0.29c0-0.08-0.15-0.14-0.4-0.14c-0.52,0-0.94,0.35-0.94,0.78L33.8,45.19L33.8,45.19z M39.18,41.82
		c0.19-0.04,0.25-0.09,0.34-0.09l0.24,0.01c0.03-0.01,0.08-0.04,0.16-0.1c0.04-0.04,0.11-0.08,0.19-0.14
		c0.27-0.18,0.28-0.19,0.28-0.25c0-0.07-0.11-0.11-0.33-0.11C39.64,41.14,39.38,41.34,39.18,41.82L39.18,41.82z"/>
	<path style="fill:#211E1E;" d="M12.03,9.91l-0.06-0.19l-0.02-0.11c0-0.11,0.05-0.17,0.2-0.22c0.26-0.1,0.34-0.14,0.45-0.24
		l0.14-0.13l0.01,0c0.04,0,0.07,0.05,0.07,0.1c0,0.17-0.18,0.48-0.37,0.79c-0.14,0.24-0.2,0.38-0.26,0.38
		c-0.06,0-0.13-0.1-0.15-0.23L12.03,9.91L12.03,9.91L12.03,9.91z M11.25,9.38l0.23,0.12c0.06,0.04,0.09,0.08,0.09,0.13l-0.01,0.08
		c-0.03,0.11,0,0.24-0.01,0.29c-0.01,0.24-0.19,0.23-0.26,0.23c-0.04,0-0.02-0.02-0.13-0.14l-0.29-0.33c-0.09-0.1-0.17-0.33-0.2-0.6
		V9.11c0-0.07,0.02-0.1,0.08-0.1c0.03,0,0.1,0.03,0.15,0.07L11.25,9.38L11.25,9.38L11.25,9.38z M12.04,10.75l0.21-0.13l0.12,0.03
		c0.15,0,0.18,0.04,0.18,0.2c0,0.24-0.15,0.34-0.41,1c-0.12,0.29-0.14,0.46-0.32,0.46c-0.19,0-0.34-0.16-0.49-0.53l-0.17-0.42
		C11.04,11.06,11,10.88,11,10.77c0-0.1,0.08-0.17,0.2-0.17c0.06,0,0.13,0.02,0.19,0.05c0.1,0.06,0.16,0.09,0.16,0.09l0.15,0.01
		l0.07,0L12.04,10.75L12.04,10.75L12.04,10.75z M36.79,9.95l-0.11-0.23l-0.02-0.11c0-0.11,0.05-0.16,0.22-0.22
		c0.17-0.06,0.35-0.16,0.44-0.24l0.14-0.13l0.01,0c0.04,0,0.06,0.05,0.06,0.1c0,0.17-0.15,0.44-0.34,0.76
		c-0.14,0.23-0.23,0.42-0.28,0.42c-0.07,0-0.13-0.1-0.15-0.23L36.79,9.95L36.79,9.95L36.79,9.95z M35.96,9.38l0.23,0.12
		c0.06,0.03,0.1,0.09,0.1,0.16l-0.01,0.06l-0.07,0.24l-0.04,0.26c0,0.04-0.03,0.05-0.07,0.05h-0.01c-0.05-0.01-0.2-0.07-0.29-0.18
		l-0.2-0.34c-0.03-0.04-0.11-0.16-0.17-0.37c-0.02-0.07-0.04-0.15-0.05-0.23l-0.01-0.04c0-0.07,0.02-0.1,0.08-0.1
		c0.03,0,0.1,0.03,0.15,0.07L35.96,9.38L35.96,9.38L35.96,9.38z M36.77,10.75l0.2-0.13l0.07-0.01c0.15,0,0.31,0.14,0.31,0.3
		c0,0.13-0.17,0.21-0.25,0.39l-0.14,0.59c-0.11,0.29-0.25,0.42-0.42,0.42c-0.2,0-0.35-0.16-0.5-0.53c-0.07-0.17-0.12-0.31-0.17-0.42
		c-0.11-0.26-0.17-0.45-0.17-0.55c0-0.13,0.07-0.2,0.19-0.2c0.07,0,0.13,0.02,0.19,0.05c0.05,0.03,0.11,0.06,0.16,0.09l0.16,0.01
		l0.07,0L36.77,10.75L36.77,10.75z M10.92,34.13l-0.06-0.2l-0.01-0.06c0-0.02,0.03-0.04,0.05-0.04c0.03,0,0.1,0.04,0.16,0.08
		c0.06,0.04,0.09,0.04,0.19,0.06c0.36,0.09,0.43,0.16,0.43,0.33l-0.01,0.22l-0.05,0.2c-0.03,0.08-0.04,0.11-0.08,0.11
		c-0.03,0-0.26-0.16-0.29-0.21l-0.13-0.19L10.92,34.13L10.92,34.13z M12.52,34.46l-0.18,0.31c-0.04,0.05-0.06,0.07-0.06,0.07h-0.01
		c-0.07,0-0.14-0.16-0.15-0.33l-0.03-0.27c0.02-0.11,0.08-0.16,0.25-0.18c0.14-0.03,0.23-0.05,0.27-0.08
		c0.12-0.09,0.19-0.14,0.21-0.14l0.02,0c0.03,0,0.06,0.03,0.06,0.06v0.02l-0.09,0.23L12.52,34.46L12.52,34.46L12.52,34.46z
		 M12.18,35.36l0.21-0.1c0.03-0.02,0.06-0.03,0.1-0.03c0.1,0,0.18,0.07,0.18,0.22c0,0.15-0.12,0.35-0.28,0.64
		c-0.18,0.31-0.31,0.53-0.44,0.53c-0.19,0-0.46-0.3-0.72-0.81c-0.06-0.12-0.1-0.26-0.1-0.37c0-0.17,0.07-0.26,0.21-0.26
		c0.06,0,0.11,0.01,0.15,0.04l0.12,0.08C11.77,35.43,11.99,35.45,12.18,35.36L12.18,35.36z M35.18,33.76l0.19,0.12
		c0.08,0.05,0.17,0.1,0.27,0.14c0.21,0.09,0.27,0.12,0.27,0.2c0,0.05-0.01,0.1-0.02,0.15c-0.02,0.06-0.03,0.12-0.04,0.19
		c-0.02,0.18-0.13,0.23-0.2,0.23c-0.08,0-0.18-0.14-0.33-0.4c-0.06-0.12-0.16-0.35-0.21-0.53l0-0.05c0-0.03,0.02-0.05,0.05-0.05
		L35.18,33.76L35.18,33.76L35.18,33.76z M36.97,34.22l-0.31,0.31c-0.11,0.14-0.11,0.27-0.13,0.29c-0.03,0.02-0.06,0.04-0.09,0.04
		h-0.02c-0.08,0-0.13-0.05-0.14-0.13l-0.02-0.23l-0.01-0.22v-0.01c0-0.09,0.05-0.13,0.12-0.15l0.28-0.08l0.29-0.15
		c0.09-0.04,0.11-0.05,0.13-0.05c0.03,0,0.06,0.04,0.06,0.07c0,0.03-0.01,0.06-0.02,0.08L36.97,34.22L36.97,34.22L36.97,34.22z
		 M35.63,35.12l0.2,0.14c0.05,0.03,0.11,0.05,0.18,0.05c0.08,0,0.2-0.03,0.31-0.08l0.17-0.08c0.03-0.01,0.07-0.02,0.1-0.03
		c0.1,0,0.19,0.11,0.19,0.25c0,0.19-0.14,0.4-0.34,0.69l-0.14,0.3c-0.12,0.16-0.2,0.23-0.29,0.23c-0.16,0-0.23-0.09-0.47-0.56
		c-0.17-0.33-0.24-0.54-0.24-0.7c0-0.14,0.07-0.24,0.18-0.24C35.52,35.09,35.57,35.08,35.63,35.12L35.63,35.12L35.63,35.12z"/>
	<path style="fill:#FDDC02;" d="M11.75,11.14h-0.17c-0.03,0-0.05,0.01-0.07,0.04l-0.02,0.06l0.06,0.32l0.05,0.28
		c0.03,0.15,0.08,0.22,0.2,0.22c0.13,0,0.21-0.09,0.23-0.26l0.03-0.29c0.01-0.19,0.03-0.29,0.03-0.3c0-0.03-0.02-0.06-0.04-0.08
		c-0.02-0.02-0.04-0.03-0.07-0.03l-0.01,0L11.75,11.14L11.75,11.14z M36.46,11.14H36.3c-0.03,0-0.05,0.02-0.06,0.04
		c-0.02,0.02-0.03,0.04-0.04,0.06l0.06,0.32l0.05,0.28c0.03,0.15,0.05,0.22,0.17,0.22c0.13,0,0.24-0.09,0.26-0.26l0.02-0.29
		c0.01-0.1,0.02-0.2,0.03-0.3c0-0.03-0.02-0.06-0.04-0.08c-0.02-0.02-0.04-0.03-0.07-0.03l-0.01,0L36.46,11.14L36.46,11.14z
		 M11.87,35.68l-0.15-0.03h-0.02c-0.08,0-0.13,0.05-0.13,0.14c0,0.13,0.1,0.38,0.24,0.58c0.02,0.03,0.06,0.05,0.1,0.05
		c0.09,0,0.15-0.16,0.19-0.43l0.04-0.2l0.01-0.04c0-0.08-0.03-0.11-0.09-0.11h-0.03L11.87,35.68L11.87,35.68z M35.8,35.85l0.01,0.25
		c0.01,0.11,0.1,0.23,0.19,0.23c0.12,0,0.21-0.18,0.26-0.46c0.03-0.13,0.03-0.15,0.03-0.19c0-0.1-0.03-0.12-0.16-0.12l-0.07,0h-0.09
		l-0.06,0c-0.08,0-0.11,0.06-0.11,0.23V35.85L35.8,35.85z"/>
	<path style="fill:#211E1E;" d="M20.89,23.02h1.4c0.16-0.33,0.37-0.48,0.71-0.48c0.33,0,0.54,0.14,0.73,0.48h1.15
		c0.14-0.3,0.41-0.48,0.75-0.48c0.31,0,0.62,0.2,0.72,0.48h1.06c0.16-0.31,0.41-0.48,0.7-0.48c0.29,0,0.54,0.13,0.71,0.4l0.05,0.08
		h1.48v6.86h-1.29v2.63h-1.53v-2.63h-3.84v2.63h-1.52v-2.66h-1.29V23.02L20.89,23.02z"/>
	<polygon style="fill:#EE2E4F;" points="21.44,29.35 29.87,29.35 29.87,23.58 21.44,23.58 21.44,29.35 	"/>
	<path style="fill:#FDDC02;" d="M22.32,24.9c-0.22,0-0.4,0.18-0.4,0.4c0,0.22,0.18,0.4,0.4,0.4c0.22,0,0.4-0.18,0.4-0.4
		C22.72,25.08,22.54,24.9,22.32,24.9L22.32,24.9z"/>
	<path style="fill:none;stroke:#211E1E;stroke-width:0.1083;" d="M22.32,24.9c-0.22,0-0.4,0.18-0.4,0.4c0,0.22,0.18,0.4,0.4,0.4
		c0.22,0,0.4-0.18,0.4-0.4C22.72,25.08,22.54,24.9,22.32,24.9L22.32,24.9z"/>
	<path style="fill:#FDDC02;" d="M28.93,24.9c-0.22,0-0.4,0.18-0.4,0.4c0,0.22,0.18,0.4,0.4,0.4c0.22,0,0.4-0.18,0.4-0.4
		C29.33,25.08,29.15,24.9,28.93,24.9L28.93,24.9z"/>
	<path style="fill:none;stroke:#211E1E;stroke-width:0.1083;" d="M28.93,24.9c-0.22,0-0.4,0.18-0.4,0.4c0,0.22,0.18,0.4,0.4,0.4
		c0.22,0,0.4-0.18,0.4-0.4C29.33,25.08,29.15,24.9,28.93,24.9L28.93,24.9z"/>
	<path style="fill:#FDDC02;" d="M22.32,28.04c-0.22,0-0.4,0.18-0.4,0.4c0,0.22,0.18,0.4,0.41,0.4c0.21,0,0.38-0.18,0.38-0.4
		C22.72,28.22,22.54,28.04,22.32,28.04L22.32,28.04z"/>
	<path style="fill:none;stroke:#211E1E;stroke-width:0.1083;" d="M22.32,28.04c-0.22,0-0.4,0.18-0.4,0.4c0,0.22,0.18,0.4,0.41,0.4
		c0.21,0,0.38-0.18,0.38-0.4C22.72,28.22,22.54,28.04,22.32,28.04L22.32,28.04z"/>
	<path style="fill:#FDDC02;" d="M28.93,28.04c-0.54,0-0.54,0.8,0,0.8C29.46,28.84,29.46,28.04,28.93,28.04L28.93,28.04z"/>
	<path style="fill:none;stroke:#211E1E;stroke-width:0.1083;" d="M28.93,28.04c-0.54,0-0.54,0.8,0,0.8
		C29.46,28.84,29.46,28.04,28.93,28.04L28.93,28.04z"/>
	<path style="fill:#FDDC02;" d="M23.57,26.82c0.54,0.68,1.23,1.02,2.08,1.02c0.78,0,1.32-0.28,1.96-1.02
		c-0.63-0.65-1.22-0.92-1.99-0.92C24.79,25.9,24.06,26.24,23.57,26.82L23.57,26.82z"/>
	<path style="fill:#211E1E;" d="M23.98,26.82c0.56-0.43,1.03-0.61,1.61-0.61c0.59,0,1.03,0.17,1.6,0.63
		c-0.5,0.49-0.94,0.68-1.61,0.68C24.98,27.52,24.44,27.28,23.98,26.82L23.98,26.82z"/>
	<path style="fill:#FDDC02;" d="M24.66,26.69c0.33,0.21,0.6,0.29,0.91,0.29c0.37,0,0.67-0.09,0.97-0.29
		c-0.31-0.15-0.64-0.23-0.96-0.23C25.25,26.46,24.94,26.54,24.66,26.69L24.66,26.69z"/>
	<polygon style="fill:#211E1E;" points="21.32,24.17 29.98,24.17 29.98,23.87 21.32,23.87 21.32,24.17 	"/>
	<polygon style="fill:none;stroke:#211E1E;stroke-width:0.0364;" points="21.32,24.17 29.98,24.17 29.98,23.87 21.32,23.87 
		21.32,24.17 	"/>
	<path style="fill:#FDDC02;" d="M22.65,23.5v0.83c0,0.2,0.15,0.35,0.35,0.35c0.24,0,0.36-0.12,0.36-0.35v-0.82
		c0-0.32-0.12-0.51-0.33-0.51c-0.06,0-0.11,0.02-0.16,0.04c-0.04,0.03-0.07,0.04-0.09,0.05c-0.03,0.03-0.06,0.07-0.08,0.11
		c-0.03,0.07-0.05,0.12-0.05,0.15V23.5L22.65,23.5L22.65,23.5z M25.26,24.18v0.15c0,0.2,0.15,0.35,0.35,0.35
		c0.24,0,0.37-0.12,0.37-0.35v-0.82c0-0.31-0.13-0.51-0.33-0.51c-0.24,0-0.39,0.19-0.39,0.5V24.18L25.26,24.18z M27.78,23.5v0.83
		c0,0.2,0.15,0.35,0.35,0.35c0.23,0,0.36-0.12,0.36-0.35v-0.82c0-0.32-0.13-0.51-0.33-0.51c-0.06,0-0.11,0.02-0.16,0.04
		c-0.04,0.03-0.08,0.04-0.09,0.05c-0.04,0.03-0.06,0.07-0.08,0.11c-0.03,0.07-0.05,0.12-0.05,0.15V23.5L27.78,23.5L27.78,23.5z
		 M22.47,31.5h0.79v-1.02h-0.79V31.5L22.47,31.5z M22.47,32.05h0.79v-0.32h-0.79V32.05L22.47,32.05z M27.84,31.5h0.79v-1.02h-0.79
		V31.5L27.84,31.5z M27.84,32.05h0.79v-0.32h-0.79V32.05L27.84,32.05z"/>
	<path style="fill:#211E1E;" d="M71.11,5.86v0.61h-0.4c-0.59,0-1.58,0-1.58,1.85v7.57c0,4.63-2.01,6.88-6.16,6.88
		c-4.68,0-6.86-1.87-6.86-5.87V8.31c0-1.85-1-1.85-1.88-1.85h-0.19V5.86h7v0.61h-0.19c-0.87,0-1.95,0-1.95,1.85v8.19
		c0,3.53,1.47,5.25,4.51,5.25c2.95,0,4.51-1.85,4.51-5.35V8.31c0-1.85-1.02-1.85-1.76-1.85h-0.37V5.86H71.11L71.11,5.86L71.11,5.86z
		 M78.67,21.79v0.61h-5.91v-0.61H73c1.93,0,2.18-1.48,2.18-3.14V8.72c0-1.59-0.91-2.25-2.21-2.25h-0.21v-0.6h4.65l10.05,12.32V8.81
		c0-2.12-1.48-2.35-2.12-2.35h-0.42v-0.6h5.97v0.6h-0.26c-1.05,0-2.16,0.25-2.16,3.14v12.87l-0.88,0L76.19,8.69l0.01,9.95
		c0,1.66,0.24,3.15,2.24,3.15L78.67,21.79L78.67,21.79L78.67,21.79z M110.34,18.89l3.64-10.16c0.65-1.73,0.23-2.26-1.27-2.26h-0.3
		V5.86h4.71v0.61h-0.1c-0.51,0-1.11,0.15-1.56,1.29l-5.51,14.7h-1.05L102.9,7.89c-0.47-1.21-1.03-1.43-2.04-1.43h-0.14V5.86h6.83
		v0.61h-0.44c-1.17,0-1.39,0.73-1.06,1.62L110.34,18.89L110.34,18.89z M137.94,6.64l0,7.32h1.42c2.57,0,3.71-1.15,3.71-3.83
		c0-2.18-1.41-3.59-3.53-3.59C139.04,6.53,138.37,6.57,137.94,6.64L137.94,6.64z M140.48,5.86c3.66,0,5.48,1.35,5.48,4.13
		c0,2.35-1.84,3.54-3.28,4.13l-0.11,0.04l4.06,6.18c0.65,1,1.18,1.39,2.3,1.45v0.62h-4.24l-4.92-7.76h-1.83v5.14
		c0,1.87,0.83,2.01,2,2.01h0.33v0.61h-7.19v-0.61h0.33c0.81,0,1.74-0.36,1.74-1.39V8.38c0-1.92-1.13-1.92-1.74-1.92h-0.33V5.86
		H140.48L140.48,5.86z"/>
	<path style="fill:#211E1E;" d="M157.66,19.26c0-2.01-1.73-2.81-3.34-3.65c-1.89-0.98-4.06-2-4.06-5.05c0-2.95,2.25-4.86,5.46-4.86
		c1.32,0,2.8,0.27,3.46,0.39l0.23,3.22l-0.62,0.09c-0.29-1.69-1.17-2.99-3.07-2.99c-1.79,0-3.12,1.1-3.12,3.08
		c0,1.87,1.72,2.63,3.33,3.44c1.96,0.98,4.21,2.01,4.21,5.09c0,3.41-3.04,4.94-5.85,4.94c-1.12,0-2.67-0.23-3.92-0.93l-0.39-3.58
		l0.6-0.1c0.46,2.38,1.97,3.75,3.96,3.75C156.45,22.08,157.66,20.92,157.66,19.26L157.66,19.26z"/>
	<path style="fill:#211E1E;" d="M169.46,5.86v0.61h-0.23c-0.95,0-1.81,0.18-1.81,1.46v12.41c0,1.28,0.87,1.46,1.81,1.46h0.23v0.61
		h-6.91v-0.61h0.24c0.94,0,1.81-0.18,1.81-1.46V7.92c0-1.28-0.87-1.46-1.81-1.46h-0.24V5.86H169.46L169.46,5.86z M99.77,5.86v0.61
		h-0.24c-0.94,0-1.81,0.18-1.81,1.46v12.41c0,1.28,0.87,1.46,1.81,1.46h0.24v0.61h-6.91v-0.61h0.23c0.95,0,1.82-0.18,1.82-1.46V7.92
		c0-1.28-0.87-1.46-1.82-1.46h-0.23V5.86H99.77L99.77,5.86z"/>
	<path style="fill:#211E1E;" d="M237.41,29.74l0.06,4.39c0,0-0.54,0.13-0.7,0.18c-0.16-1.92-0.59-3.49-3.66-3.49h-4.13v8.11h3.54
		c1.74,0,2.21-0.97,2.41-2.65h0.7v6.78l-0.7,0.01c-0.11-1.62-0.49-2.88-2.39-2.88h-3.55v7.12c0,2.07,1.78,2.07,3.67,2.07
		c3.39,0,4.96-0.22,5.91-3.64c0.14,0.04,0.69,0.15,0.69,0.15l-0.95,4.57h-15.39v-0.76h0.29c1.18,0,2.27-0.22,2.27-1.83V32.33
		c0-1.61-1.09-1.84-2.27-1.84h-0.29v-0.76H237.41L237.41,29.74z"/>
	<path style="fill:#211E1E;" d="M150.32,30.72l-0.01,9.18h1.77c3.23,0,4.65-1.44,4.65-4.81c0-2.74-1.76-4.5-4.41-4.5
		C151.7,30.58,150.91,30.62,150.32,30.72L150.32,30.72L150.32,30.72z M153.51,29.74c4.59,0,6.87,1.69,6.87,5.17
		c0,2.95-2.3,4.45-4.11,5.18l-0.13,0.05l5.08,7.74c0.82,1.26,1.48,1.74,2.88,1.82v0.77h-5.31l-6.17-9.74h-2.29v6.46
		c0,2.34,1.04,2.53,2.51,2.53h0.41v0.76h-9.02v-0.76h0.41c1,0,2.19-0.46,2.19-1.74V32.9c0-2.4-1.42-2.4-2.19-2.4h-0.41v-0.76
		L153.51,29.74L153.51,29.74L153.51,29.74z M174.02,29.73v0.76h-0.3c-1.18,0-2.27,0.22-2.27,1.83v15.56c0,1.61,1.09,1.83,2.27,1.83
		h0.3v0.76h-8.67v-0.76h0.29c1.18,0,2.27-0.22,2.27-1.83V32.33c0-1.61-1.09-1.83-2.27-1.83h-0.29v-0.76H174.02L174.02,29.73z"/>
	<path style="fill:#211E1E;" d="M173.05,5.86h10.94c0.55,0,1.26-0.14,1.37-0.86h0.53l-0.42,4.31h-0.59c-0.03-1-0.18-2.45-1.78-2.45
		h-3.34v12.77c0,1.99,0.96,2.16,2.02,2.16h0.35v0.61h-7.54v-0.61h0.35c1.26,0,2.02-0.1,2.02-2.11V6.87h-3.38
		c-1.72,0-1.88,0.76-2.22,2.43h-0.6l0.38-4.26h0.49C171.87,5.72,172.47,5.86,173.05,5.86L173.05,5.86z"/>
	<path style="fill:#211E1E;" d="M202.8,5.86v0.61c-0.95,0.05-1.53,0.7-1.95,1.31l-4.2,6.47v5.28c0,2.1,0.76,2.25,2.02,2.25h0.35
		v0.61h-7.54v-0.61h0.35c1.31,0,2.02-0.33,2.02-2.06v-5.08l-4.56-6.52c-0.7-1-1.22-1.67-2.32-1.67h-0.14V5.86h6.83v0.61h-0.21
		c-1.31,0-1.4,0.7-0.85,1.49l3.54,5.47l3.12-4.94c0.72-1.08,0.93-2.02-0.85-2.02h-0.27V5.86H202.8L202.8,5.86z"/>
	<path style="fill:#211E1E;" d="M210.89,13.41c0,4.09,1.8,8.48,5.77,8.48c3.62,0,5.39-2.52,5.39-7.69c0-3.8-2.03-7.84-5.79-7.84
		C211.28,6.36,210.89,11.75,210.89,13.41L210.89,13.41L210.89,13.41z M207.82,14.25c0-4.9,3.73-8.74,8.49-8.74
		c5.19,0,8.81,3.36,8.81,8.17c0,5.26-3.65,9.09-8.69,9.09C211.44,22.76,207.82,19.18,207.82,14.25L207.82,14.25z"/>
	<path style="fill:#211E1E;" d="M227,22.39v-0.6h0.24c0.95,0,1.81-0.18,1.81-1.46V7.92c0-1.28-0.87-1.46-1.81-1.46H227v-0.6h11.56
		l0.04,3.49c-0.09,0.03-0.42,0.11-0.55,0.14c-0.13-1.42-0.46-2.78-2.43-2.78h-3.78v6.47h3.31c1.37,0,1.56-1.08,1.58-1.94h0.55v5.3
		h-0.54c-0.01-1.03-0.26-2.35-1.95-2.35h-2.94v6.13c0,1.46,1.24,1.46,2.33,1.46h0.21v0.6H227L227,22.39z"/>
	<path style="fill:#211E1E;" d="M55.35,40.1c0-3.09,1.25-6.11,3.4-8.04c2-1.79,4.62-2.8,7.59-2.8c2.65,0,4.86,0.48,7.03,1.49
		l0.22,4.81l-0.68,0.09c-0.78-2.79-2.08-5.34-6.48-5.34c-4.52,0-7.32,3.58-7.32,9.33c0,5.12,2.27,9.97,7.76,9.97
		c3.09,0,5.29-1.16,6.95-3.29l0.54,1.02c-1.87,2.42-4.77,3.71-8.05,3.71C59.61,51.03,55.35,47.08,55.35,40.1L55.35,40.1z
		 M100.08,33.75l-0.68,12.81c-0.13,2.84,0.75,3.09,2.66,3.16h0.18v0.75h-6.99v-0.75h0.27c2.35-0.09,2.5-1.4,2.61-3.32l0.81-13.11
		c0.11-1.79-0.87-2.81-2.53-2.81h-0.23v-0.75h5.87c0.07,0.16,7.05,15.72,7.05,15.72s6.59-15.56,6.66-15.72h5.76v0.76h-0.11
		c-2.33,0-2.75,0.73-2.57,3.66l0.8,13.76c0.12,1.61,0.96,1.76,2.56,1.82v0.75h-8.61v-0.75h0.06c1.4-0.08,2.41-0.14,2.41-1.55
		l-0.03-1.49l-0.63-13.27c0,0-7.1,17.05-7.17,17.22h-0.63C107.51,50.45,100.08,33.75,100.08,33.75L100.08,33.75L100.08,33.75z
		 M183.38,30.72l-0.01,16.29c0,2.2,0.93,2.55,3.16,2.55c5.24,0,7.63-4.52,7.63-8.94c0-6.88-2.84-10-8.67-10
		C184.97,30.63,183.87,30.67,183.38,30.72L183.38,30.72z M177.28,50.48v-0.76h0.29c1.18,0,2.27-0.22,2.27-1.83V32.33
		c0-1.61-1.09-1.83-2.27-1.83h-0.29v-0.76l9.27,0c3.45,0,6.34,0.87,8.35,2.74c1.98,1.85,3.04,4.47,3.04,7.58
		c0,2.91-1.16,5.72-3.17,7.72c-2.03,2.01-4.87,2.7-7.75,2.7L177.28,50.48L177.28,50.48z M215.6,49.41v-5.09
		c0-1.11-0.81-1.7-2.34-1.7h-0.24v-0.74h7.98v0.74h-0.24c-1.12,0-1.71,0.59-1.71,1.7l-0.01,5.66c-1.9,0.62-4.46,1.1-7.29,1.1
		c-6.85,0-11.27-4.44-11.27-11.31c0-7.3,5.84-10.63,11.33-10.63c2.46,0,4.99,0.49,6.59,1.03l0.33,4.95l-0.69,0.04
		c-0.86-3.57-2.45-4.96-6.02-4.96c-4.82,0-7.74,3.55-7.74,9.27c0,5.25,2.47,10.46,7.97,10.46C213.51,49.96,214.83,49.76,215.6,49.41
		L215.6,49.41z M135.47,39.18c2.61,0.19,4,0.77,5.17,1.96c0.91,0.93,1.38,2.1,1.38,3.46c0,3.25-2.99,5.86-6.87,5.86h-10.16v-0.75
		h0.41c1.01,0,2.19-0.48,2.19-1.77V32.9c0-2.4-1.42-2.4-2.19-2.4h-0.41v-0.76l9.21,0c4.32,0,6.7,1.57,6.7,4.54
		C140.9,37.56,138.01,38.78,135.47,39.18L135.47,39.18L135.47,39.18z M131.22,30.5v8.33h1.56c2.86,0,4.43-1.39,4.43-4.04
		c0-2.93-1.38-4.29-4.12-4.29H131.22L131.22,30.5z M131.22,39.74v7.3c0,2.03,0.64,2.61,2.75,2.61c2.53,0,4.44-2.08,4.44-4.91
		c0-3.19-1.94-5-5.19-5H131.22L131.22,39.74z M83.2,33.97l2.9,8.08h-5.8L83.2,33.97L83.2,33.97z M83.56,29.73l-6.58,17.9
		c-0.49,1.27-1.35,2.06-2.63,2.06h-0.07v0.78h6.31V49.7h-0.28c-1.52,0-2.55-0.49-1.89-2.45l1.51-4.18h6.53l1.64,4.56
		c0.47,1.44-0.14,2.09-1.7,2.09h-0.18v0.77h8.04v-0.77h-0.06c-1.07,0-1.8-0.56-2.3-1.98l-6.75-17.99L83.56,29.73L83.56,29.73
		L83.56,29.73z M129.78,5.86l0.04,3.5c0,0-0.42,0.1-0.56,0.14c-0.13-1.53-0.47-2.78-2.92-2.78h-3.28v6.46h2.82
		c1.38,0,1.76-0.77,1.92-2.11h0.56v5.4l-0.56,0.01c-0.08-1.29-0.39-2.29-1.9-2.29h-2.83v5.68c0,1.65,1.42,1.65,2.92,1.65
		c2.7,0,3.95-0.17,4.71-2.9c0.11,0.03,0.55,0.12,0.55,0.12l-0.76,3.65h-12.27v-0.61h0.23c0.94,0,1.81-0.18,1.81-1.46V7.92
		c0-1.28-0.87-1.46-1.81-1.46h-0.23V5.86H129.78L129.78,5.86z"/>
</g>
</svg>
